<?xml version="1.0" standalone="no"?>
<!DOCTYPE svg PUBLIC "-//W3C//DTD SVG 20010904//EN"
 "http://www.w3.org/TR/2001/REC-SVG-20010904/DTD/svg10.dtd">
<svg version="1.0" xmlns="http://www.w3.org/2000/svg"
 width="853.000000pt" height="1280.000000pt" viewBox="0 0 853.000000 1280.000000"
 preserveAspectRatio="xMidYMid meet">

<g transform="translate(0.000000,1280.000000) scale(0.100000,-0.100000)"
fill="#000000" stroke="none">
<path d="M0 6400 l0 -6400 4265 0 4265 0 0 6400 0 6400 -4265 0 -4265 0 0
-6400z m5239 5444 c29 -8 51 -17 49 -19 -2 -3 -33 4 -69 14 -35 11 -57 20 -48
20 8 1 39 -6 68 -15z m-344 -49 l40 -14 -40 7 c-51 9 -245 9 -310 0 l-50 -7
50 14 c66 17 258 17 310 0z m450 5 c3 -6 -1 -7 -9 -4 -18 7 -21 14 -7 14 6 0
13 -4 16 -10z m-845 -34 c0 -2 -7 -7 -16 -10 -8 -3 -12 -2 -9 4 6 10 25 14 25
6z m515 -10 c19 -8 35 -17 35 -20 0 -5 -71 22 -79 30 -9 8 11 4 44 -10z m433
-21 c-3 -3 -9 2 -12 12 -6 14 -5 15 5 6 7 -7 10 -15 7 -18z m-1033 -15 c-3 -5
-16 -15 -28 -21 -21 -10 -21 -9 2 10 25 23 36 27 26 11z m692 -11 c19 -12 32
-23 29 -26 -2 -3 -22 7 -43 21 -45 31 -35 35 14 5z m38 -402 c38 -15 78 -27
88 -27 10 0 20 -7 23 -15 3 -7 27 -22 52 -31 26 -10 54 -24 63 -31 11 -9 26
-12 44 -7 22 6 26 4 20 -7 -7 -12 -6 -12 7 -1 13 10 19 10 31 -3 9 -8 22 -14
29 -13 7 2 12 -3 10 -10 -1 -8 2 -11 8 -7 8 5 30 -32 30 -51 0 -15 -42 1 -79
31 -90 71 -193 58 -446 -58 -99 -45 -111 -48 -335 -82 -19 -2 -8 3 24 12 53
14 57 17 41 29 -19 14 -39 97 -24 102 5 2 9 22 9 44 0 58 40 91 149 124 47 14
91 27 96 29 23 9 94 -4 160 -28z m283 -187 c24 -23 29 -42 9 -34 -16 6 -69
-34 -62 -47 4 -5 1 -9 -4 -9 -6 0 -11 -4 -11 -9 0 -12 64 5 68 18 6 18 42 -2
48 -28 4 -14 10 -31 15 -36 4 -6 11 -34 15 -63 6 -51 6 -53 -32 -87 -48 -45
-86 -55 -201 -55 -91 0 -92 0 -136 38 -24 20 -61 61 -82 90 -36 51 -37 56 -26
92 14 48 44 69 140 104 130 47 226 56 259 26z m417 -61 c13 -20 35 -144 35
-196 0 -86 -63 -197 -132 -234 -17 -9 -18 -6 -15 26 3 20 9 41 16 48 6 6 11
24 11 39 0 21 5 28 20 28 27 0 44 34 25 50 -12 10 -11 14 3 29 25 25 50 15 55
-23 l4 -31 1 35 c2 54 -26 174 -44 187 -20 15 -34 8 -91 -46 -33 -31 -43 -36
-43 -22 0 38 23 81 53 100 34 22 92 28 102 10z m-237 -115 c1 -42 -2 -64 -9
-64 -8 0 -8 -4 0 -14 8 -10 9 -16 1 -21 -5 -3 -10 0 -10 7 -1 7 -10 -6 -22
-29 -16 -34 -26 -43 -46 -43 -23 0 -24 2 -10 18 27 32 38 73 38 142 0 69 7 81
40 73 12 -3 16 -20 18 -69z m-772 18 c16 -10 44 -79 44 -107 0 -39 -37 -56
-125 -57 -22 0 -51 1 -65 2 -14 1 -36 -1 -50 -6 -23 -7 -24 -6 -10 11 14 17
13 18 -10 11 -14 -4 -37 -10 -52 -13 -16 -3 -28 -6 -28 -8 0 -1 5 -16 11 -34
8 -22 16 -30 26 -27 8 3 19 6 24 6 5 0 9 5 9 10 0 6 -11 10 -25 10 -14 0 -25
4 -25 10 0 15 42 21 75 11 25 -8 26 -9 8 -10 -13 -1 -23 -6 -23 -12 0 -8 11
-9 33 -4 60 13 112 23 114 22 0 -1 3 -38 5 -81 3 -80 3 -80 -27 -97 -47 -27
-117 -31 -155 -8 -21 13 -30 25 -26 35 3 8 2 13 -3 10 -13 -8 -60 106 -65 156
-4 44 6 79 20 65 4 -4 21 4 38 16 85 65 243 115 282 89z m189 -129 c5 -25 3
-33 -8 -33 -19 0 -46 52 -29 57 6 3 12 12 12 21 1 15 2 15 9 2 5 -8 12 -30 16
-47z m668 -60 c-8 -78 -13 -80 -13 -5 0 34 4 62 9 62 6 0 7 -25 4 -57z m34 25
c-3 -8 -6 -5 -6 6 -1 11 2 17 5 13 3 -3 4 -12 1 -19z m-1268 -32 c0 -6 -3 -5
-6 2 -2 6 -9 12 -15 12 -6 0 -8 -7 -4 -15 3 -8 1 -15 -4 -15 -12 0 -12 6 -3
39 6 23 7 23 20 6 7 -11 13 -24 12 -29z m784 -23 c-7 -2 -21 -2 -30 0 -10 3
-4 5 12 5 17 0 24 -2 18 -5z m65 0 c-10 -2 -26 -2 -35 0 -10 3 -2 5 17 5 19 0
27 -2 18 -5z m400 -83 c5 0 10 -12 10 -27 l0 -27 -19 23 c-11 13 -19 35 -18
50 0 25 0 25 9 4 5 -13 13 -23 18 -23z m61 -114 c7 -8 30 -17 51 -21 22 -4 60
-22 85 -41 40 -31 45 -39 45 -74 0 -21 -4 -50 -10 -65 -7 -19 -7 -24 2 -19 6
4 8 3 4 -4 -11 -18 -15 -191 -5 -194 6 -2 12 -35 15 -73 l6 -70 -41 -23 c-23
-12 -41 -27 -41 -32 0 -16 -71 -90 -101 -106 -29 -14 -53 -19 -33 -6 8 4 -4
21 -32 48 -24 22 -46 39 -48 36 -3 -2 -8 7 -12 22 -3 14 -10 26 -15 26 -9 0
-32 41 -44 79 -4 14 -3 21 2 18 6 -4 4 23 -3 61 -7 36 -10 70 -7 74 2 5 -2 30
-11 56 -8 26 -16 62 -18 81 -3 36 -6 39 -77 70 -54 23 -66 20 -78 -22 -6 -21
-15 -31 -25 -29 -9 1 -19 -5 -21 -15 -3 -11 -5 -7 -6 11 -2 46 21 106 47 127
22 17 37 19 131 15 l106 -5 -74 11 c-68 9 -72 11 -57 27 13 12 40 17 113 20
65 2 101 8 110 17 18 18 28 18 42 0z m-1104 -415 c77 -4 113 -9 80 -10 -51 -2
-56 -4 -35 -12 14 -6 41 -9 62 -7 34 3 35 2 25 -17 -9 -18 -8 -18 6 -7 13 11
16 10 20 -10 2 -13 3 -3 1 22 -3 30 -1 41 6 34 5 -5 13 -51 16 -101 l7 -92
-279 4 c-259 4 -287 6 -394 31 -79 18 -143 27 -205 27 -191 0 -270 -33 -475
-198 -22 -18 -108 -104 -161 -162 -13 -13 -41 -25 -81 -32 -33 -6 -70 -18 -81
-28 -23 -21 -89 -106 -134 -173 -21 -33 -49 -57 -88 -78 -31 -17 -84 -51 -118
-77 -158 -117 -267 -194 -295 -209 l-32 -17 1 148 c0 82 4 283 9 448 9 340 17
382 80 445 38 38 84 56 181 70 67 9 1693 10 1884 1z m1900 -6 c79 -21 154 -63
177 -100 45 -73 61 -184 77 -546 11 -233 22 -292 63 -332 30 -31 33 -47 29
-162 -2 -56 4 -90 28 -166 17 -53 31 -107 31 -120 0 -21 -5 -19 -50 26 -27 27
-52 47 -54 44 -3 -2 20 -29 50 -59 69 -69 100 -133 114 -234 7 -54 19 -95 37
-125 79 -134 95 -190 35 -121 -15 17 -30 30 -35 30 -5 0 -32 22 -60 49 -29 27
-68 61 -87 77 -102 80 -197 194 -289 345 -52 85 -123 201 -159 259 -71 115
-232 431 -282 552 -23 56 -30 86 -25 107 3 16 1 39 -5 50 -10 20 -8 21 37 23
l48 1 -42 4 c-39 4 -43 7 -43 31 0 35 -34 147 -55 178 -10 16 -25 24 -45 24
-17 0 -30 5 -30 10 0 6 -11 10 -25 10 -21 0 -25 5 -25 28 0 15 -3 51 -6 80
l-7 52 270 0 c209 0 282 -3 328 -15z m-2405 -170 c75 -20 136 -28 283 -35 118
-5 198 -5 213 1 54 20 59 14 60 -59 1 -53 7 -80 28 -122 15 -30 31 -57 34 -60
4 -3 20 -21 36 -40 16 -19 51 -51 78 -71 183 -137 537 -101 733 73 l53 48 21
-50 c11 -27 21 -51 21 -54 0 -3 13 -19 30 -36 47 -48 58 -70 75 -148 20 -96
59 -370 85 -602 11 -102 26 -214 31 -248 13 -73 1 -415 -12 -372 -17 53 5
-149 23 -215 33 -120 33 -146 3 -177 -14 -16 -22 -28 -17 -28 5 0 20 13 34 30
l24 29 0 -38 c-1 -23 -9 -47 -19 -59 -17 -19 -17 -20 2 -25 18 -4 19 -9 10
-35 -7 -22 -7 -36 0 -49 9 -16 10 -16 11 -1 0 22 21 68 31 68 7 0 -3 -27 -53
-138 -32 -71 -17 -84 20 -18 17 33 32 63 32 68 0 4 4 8 10 8 6 0 6 -9 0 -26
-14 -35 -12 -42 4 -19 7 11 13 34 13 50 0 17 -2 24 -4 18 -3 -7 -9 -13 -14
-13 -6 0 -5 8 1 20 6 11 15 18 19 15 5 -2 11 9 15 27 3 17 8 29 10 27 8 -7
-24 -161 -46 -224 -11 -33 -36 -92 -54 -132 -19 -40 -34 -77 -34 -83 0 -6 -5
-8 -12 -4 -7 4 -8 3 -4 -5 4 -6 -4 -39 -17 -74 -16 -39 -26 -89 -29 -134 -4
-88 10 -82 20 8 8 64 8 64 27 -94 20 -172 18 -200 -27 -297 -12 -25 -22 -55
-23 -67 0 -11 -6 -27 -12 -35 -13 -15 -53 -161 -53 -192 0 -26 -30 -106 -40
-106 -4 0 -23 51 -43 113 -20 61 -52 137 -71 167 -19 30 -70 118 -112 195 -43
77 -92 163 -110 192 -35 55 -207 207 -227 200 -7 -2 -20 7 -30 20 -39 49 -225
155 -322 184 l-45 13 -30 91 c-16 49 -30 98 -30 109 0 85 -178 382 -284 473
-88 76 -169 104 -304 104 -136 0 -240 -31 -329 -95 -33 -25 -64 -50 -68 -56
-3 -5 -10 -8 -15 -5 -5 3 -45 -18 -87 -46 -88 -59 -105 -72 -285 -217 -98 -78
-127 -97 -123 -80 2 13 9 52 15 87 10 71 31 100 110 154 25 17 47 34 50 38 3
3 34 25 70 49 47 30 57 40 37 35 -22 -4 -27 -3 -21 7 6 12 -59 -44 -79 -67 -5
-6 -6 -2 -2 10 4 11 16 61 26 112 10 50 34 135 53 190 78 226 114 365 150 578
26 155 46 312 45 352 -1 21 -7 -7 -15 -62 -30 -232 -44 -318 -75 -452 -18 -79
-34 -141 -36 -139 -2 1 -12 45 -24 97 -21 99 -78 293 -84 287 -2 -2 8 -41 21
-88 42 -143 75 -319 67 -359 -6 -30 -8 -33 -12 -14 -5 21 -8 19 -28 -17 -12
-22 -17 -38 -12 -35 11 7 12 -5 1 -22 -4 -7 -71 -44 -148 -82 -93 -46 -181
-99 -260 -158 -149 -111 -312 -218 -342 -226 -47 -11 -104 27 -237 162 -71 72
-133 138 -138 146 -12 21 5 18 31 -5 12 -11 34 -20 49 -20 34 -1 75 -33 68
-52 -4 -10 7 -19 35 -28 34 -11 38 -15 27 -28 -10 -13 -9 -14 10 -3 19 9 22 9
17 -3 -3 -8 4 -23 16 -34 12 -11 20 -25 16 -30 -3 -5 8 -8 24 -7 17 1 27 -2
23 -8 -4 -6 0 -8 10 -4 18 7 30 -17 21 -45 -4 -15 -9 -17 -20 -7 -8 7 -14 7
-14 1 0 -12 24 -22 50 -22 41 0 54 95 23 171 -23 59 -243 413 -398 642 -31 47
-87 73 -173 83 l-63 7 27 29 c16 15 45 33 66 38 20 6 40 15 44 21 4 7 -1 7
-15 -1 -41 -21 -40 -5 1 29 40 34 63 41 211 71 44 9 75 25 137 71 44 33 111
80 148 106 37 25 83 60 102 76 19 17 75 50 125 73 49 24 86 43 82 44 -5 0 -17
-5 -28 -10 -28 -16 -24 -4 24 58 23 32 55 77 72 101 32 47 75 71 125 71 33 0
90 25 90 39 0 37 266 263 365 311 97 47 288 53 435 15z m1804 -6 c-4 -8 0 -9
15 -4 28 9 27 -8 -1 -20 -20 -9 -23 -17 -21 -58 3 -57 19 -91 39 -83 8 3 14 1
14 -4 0 -6 7 -10 15 -10 8 0 15 -4 15 -10 0 -13 -6 -13 -30 2 -26 16 -39 2
-14 -16 16 -12 16 -14 3 -12 -28 3 -46 25 -58 69 -16 59 -20 117 -7 110 6 -3
6 0 -1 7 -14 16 -33 5 -33 -21 0 -10 -4 -19 -10 -19 -18 0 -10 21 19 51 28 28
70 41 55 18z m46 -82 c0 -5 -4 -5 -10 -2 -5 3 -10 14 -10 23 0 15 2 15 10 2 5
-8 10 -19 10 -23z m103 -59 c18 -11 4 -18 -22 -11 -17 4 -21 11 -17 27 3 11 6
30 7 41 0 12 5 6 11 -15 5 -19 15 -38 21 -42z m-233 54 c0 -4 -15 -16 -32 -26
l-33 -19 24 26 c24 27 41 34 41 19z m157 -48 c-9 -9 -27 6 -27 22 0 13 2 13
16 -1 9 -9 14 -18 11 -21z m-97 -59 c0 -5 -5 -3 -10 5 -5 8 -10 20 -10 25 0 6
5 3 10 -5 5 -8 10 -19 10 -25z m-60 -19 c0 -5 -9 -1 -20 9 -11 10 -17 22 -14
27 6 9 33 -20 34 -36z m196 9 c-11 -8 -27 -15 -35 -15 -9 1 -2 7 14 15 39 18
44 18 21 0z m-396 -8 c0 -2 -10 -12 -22 -23 l-23 -19 19 23 c18 21 26 27 26
19z m440 -7 c0 -5 -10 -10 -22 -10 -19 0 -20 2 -8 10 19 13 30 13 30 0z m-216
-33 c-10 -26 -22 -20 -16 9 3 15 8 22 14 16 5 -5 6 -16 2 -25z m246 -11 c0
-10 -10 -12 -37 -9 -71 10 -82 22 -20 22 42 1 57 -3 57 -13z m-78 -28 c57 -24
68 -37 99 -112 75 -183 255 -525 363 -688 28 -42 58 -89 67 -105 9 -15 42 -69
73 -119 39 -65 58 -106 62 -140 9 -70 10 -183 2 -178 -12 8 -46 -15 -53 -35
-3 -10 -14 -22 -24 -27 -18 -8 -18 -12 -5 -49 7 -22 14 -48 14 -57 0 -21 -57
-81 -69 -74 -5 3 -14 -1 -21 -9 -7 -8 -17 -15 -22 -15 -5 0 -22 -9 -37 -21
-17 -12 -49 -23 -76 -25 -26 -2 -54 -9 -61 -15 -23 -19 -41 6 -47 67 -3 31
-12 63 -21 73 -14 16 -16 20 -16 41 0 6 -7 10 -15 10 -20 0 -105 85 -105 106
0 14 -58 97 -81 114 -10 8 -23 53 -20 69 3 15 -29 84 -41 89 -5 2 -8 11 -8 20
0 10 -7 30 -15 46 -8 15 -15 38 -15 51 0 12 -7 28 -15 35 -8 7 -14 24 -14 39
1 25 2 25 9 -4 l8 -30 0 30 c0 35 -15 88 -18 65 -2 -8 -6 20 -10 64 -4 43 -13
82 -20 86 -9 5 -10 28 -4 86 4 44 7 83 5 88 -1 5 -4 32 -7 60 -5 57 -30 212
-44 266 -5 19 -12 61 -15 92 -6 46 -10 56 -24 51 -9 -3 -5 4 9 15 13 11 28 18
32 16 5 -3 20 9 35 26 23 28 30 31 62 25 20 -4 57 -16 83 -27z m-734 -2 c16
-5 22 -16 23 -37 1 -16 2 -39 2 -51 1 -13 5 -26 10 -29 17 -12 -138 -43 -204
-42 -71 1 -153 19 -145 32 3 4 20 6 38 4 27 -3 29 -1 13 6 -17 8 -16 10 12 10
17 1 34 -5 37 -11 4 -12 34 13 54 47 11 19 110 83 124 81 7 -1 23 -6 36 -10z
m522 -256 c0 -13 -1 -13 -10 0 -5 8 -10 22 -10 30 0 13 1 13 10 0 5 -8 10 -22
10 -30z m14 -75 c5 -29 4 -36 -3 -25 -6 8 -11 28 -11 44 0 39 6 31 14 -19z m3
-77 c-3 -7 -5 -2 -5 12 0 14 2 19 5 13 2 -7 2 -19 0 -25z m31 -198 c-1 -32 -1
-31 -8 10 -4 25 -10 70 -13 100 l-6 55 14 -65 c8 -36 14 -81 13 -100z m9 -92
c-2 -13 -4 -5 -4 17 -1 22 1 32 4 23 2 -10 2 -28 0 -40z m26 -171 c4 -31 3
-46 -3 -42 -6 3 -10 27 -10 52 0 57 5 53 13 -10z m-3668 -29 c82 -41 109 -80
130 -193 15 -77 11 -107 -15 -114 -79 -19 -195 -53 -213 -63 -12 -6 -60 -19
-107 -28 -76 -14 -85 -18 -90 -40 -5 -20 -9 -13 -20 37 -15 66 -54 133 -86
147 -11 5 -27 21 -36 35 -16 29 -138 78 -159 65 -7 -4 -9 -3 -6 3 3 5 37 22
74 38 37 16 73 32 79 37 6 4 42 24 79 44 119 63 279 77 370 32z m3712 -110
c-3 -8 -6 -5 -6 6 -1 11 2 17 5 13 3 -3 4 -12 1 -19z m-4317 -66 c0 -5 -12
-14 -27 -21 -15 -7 -33 -21 -41 -32 -7 -10 -25 -19 -39 -19 -21 0 -23 3 -14
14 10 11 8 16 -8 21 -11 3 -29 1 -38 -5 -16 -10 -15 -11 7 -6 24 5 24 4 6 -9
-11 -8 -26 -15 -33 -15 -7 0 -13 -5 -13 -11 0 -7 12 -8 33 -4 24 4 28 3 15 -5
-23 -14 -87 -9 -81 8 3 6 11 12 19 12 8 0 14 4 14 10 0 25 72 51 193 69 4 0 7
-3 7 -7z m40 -3 c0 -5 5 -7 10 -4 6 4 24 3 41 0 40 -9 149 -112 149 -141 0
-12 6 -24 13 -27 7 -2 14 -19 15 -37 2 -29 1 -31 -13 -16 -9 9 -13 20 -10 26
14 22 -35 8 -53 -15 -12 -15 -23 -21 -27 -15 -3 5 -1 10 5 10 6 0 9 4 5 9 -3
5 2 17 11 25 13 14 13 17 1 22 -9 3 -13 13 -10 25 4 14 0 19 -15 19 -12 0 -22
8 -25 21 -3 12 -10 18 -15 15 -15 -9 -2 -46 15 -46 8 0 12 -4 9 -9 -3 -5 1
-14 9 -21 20 -17 19 -29 -2 -26 -10 2 -18 9 -18 17 -1 8 -6 13 -13 12 -7 -2
-11 0 -11 5 4 22 -3 32 -21 32 -11 0 -20 5 -20 10 0 6 5 10 11 10 6 0 4 7 -5
15 -16 17 -76 21 -76 5 0 -5 -4 -10 -10 -10 -5 0 -9 6 -7 13 1 7 -7 11 -20 10
-13 -2 -23 2 -23 7 0 6 4 10 9 10 4 0 24 13 42 30 36 31 49 37 49 19z m20 -89
c12 -8 11 -10 -7 -10 -13 0 -23 5 -23 10 0 13 11 13 30 0z m-137 -7 c-7 -2
-19 -2 -25 0 -7 3 -2 5 12 5 14 0 19 -2 13 -5z m153 -55 c44 -48 74 -102 62
-109 -9 -6 -8 -12 2 -24 10 -12 16 -72 23 -207 10 -216 -6 -376 -43 -428 -11
-16 -29 -48 -39 -72 -11 -23 -20 -37 -20 -30 -1 14 -37 16 -46 2 -3 -5 3 -10
15 -10 26 0 33 -19 23 -61 -11 -42 -41 -49 -69 -18 -10 12 -13 19 -6 15 14 -8
15 -5 6 19 -6 13 -9 14 -16 3 -6 -8 -8 20 -5 76 2 54 8 91 15 94 6 2 8 10 5
18 -3 8 -1 14 5 14 5 0 10 11 10 25 0 14 7 34 16 44 19 21 21 42 4 59 -8 8 -8
18 -2 34 12 29 6 78 -7 57 -8 -12 -10 -12 -19 1 -8 13 -10 13 -10 -1 0 -9 -7
-22 -15 -29 -8 -7 -13 -16 -10 -20 8 -12 -16 -61 -42 -89 -13 -13 -23 -30 -23
-37 0 -7 -17 -46 -38 -86 -44 -83 -52 -106 -82 -240 l-21 -98 -30 32 c-26 29
-29 40 -29 95 0 35 -4 63 -10 63 -11 0 -13 71 -4 106 4 16 12 20 27 17 21 -4
21 -4 4 11 -21 17 -21 18 28 146 24 63 34 107 38 170 l5 85 -14 -60 c-7 -33
-13 -71 -14 -84 0 -13 -20 -73 -45 -135 -25 -61 -52 -149 -60 -195 -15 -84
-24 -111 -26 -75 -1 11 -4 7 -8 -10 -10 -47 -28 -42 -35 10 -9 70 -7 114 5
114 8 0 8 5 -1 15 -7 8 -18 15 -25 15 -23 0 -23 23 2 110 33 122 41 158 47
224 4 43 12 66 28 83 15 16 17 22 7 18 -37 -14 -61 -66 -70 -149 -5 -44 -14
-92 -19 -106 -14 -36 -40 -165 -41 -203 0 -29 -1 -30 -9 -9 -6 12 -18 22 -30
22 -11 0 -20 6 -20 13 0 8 -4 7 -10 -3 -17 -27 -11 89 10 180 11 47 20 102 20
123 0 55 22 99 68 136 37 29 82 87 82 106 0 11 -131 -123 -159 -163 -12 -18
-26 -30 -31 -27 -14 9 -31 -33 -24 -60 3 -14 9 -23 13 -21 3 2 6 -20 6 -49 0
-30 -4 -48 -8 -42 -5 7 -5 -3 -2 -20 4 -18 2 -48 -3 -65 -6 -18 -13 -45 -16
-59 -5 -23 -36 -38 -36 -17 0 5 -5 6 -12 2 -7 -5 -8 -3 -3 5 4 7 2 32 -5 55
-11 39 -9 48 10 86 12 23 19 44 17 46 -2 3 -10 -9 -17 -26 -7 -16 -16 -30 -21
-30 -14 0 -11 12 11 45 11 17 25 48 31 70 14 49 82 153 146 221 27 28 60 64
74 80 26 30 128 125 167 156 81 65 185 91 252 64 53 -21 57 -20 29 5 -19 16
-20 18 -4 10 11 -5 29 -20 41 -33z m4251 20 c-3 -8 -6 -5 -6 6 -1 11 2 17 5
13 3 -3 4 -12 1 -19z m38 -267 c13 -152 34 -225 79 -263 59 -51 196 -91 239
-70 65 31 80 12 16 -21 -49 -26 -113 -16 -201 30 -84 44 -107 73 -163 208 -43
104 -51 159 -40 281 l8 89 28 -89 c15 -48 30 -123 34 -165z m-2483 204 c-8
-16 -9 -16 -15 -1 -4 10 -3 15 3 11 6 -3 10 -1 10 6 0 7 3 10 6 6 3 -3 2 -13
-4 -22z m-1671 -38 c-10 -9 -11 -8 -5 6 3 10 9 15 12 12 3 -3 0 -11 -7 -18z
m-21 -37 c0 -5 -5 -10 -11 -10 -5 0 -7 5 -4 10 3 6 8 10 11 10 2 0 4 -4 4 -10z
m5141 -27 c13 -16 12 -17 -3 -4 -10 7 -18 15 -18 17 0 8 8 3 21 -13z m-5061
-43 c0 -5 -5 -10 -11 -10 -5 0 -7 5 -4 10 3 6 8 10 11 10 2 0 4 -4 4 -10z
m505 -10 c-3 -5 -12 -10 -18 -10 -7 0 -6 4 3 10 19 12 23 12 15 0z m4640 -10
c3 -6 -4 -10 -17 -10 -18 0 -20 2 -8 10 19 12 18 12 25 0z m-5876 -27 c-7 -10
-21 -25 -30 -33 -29 -27 -121 -143 -130 -164 -4 -12 -26 -65 -49 -118 -34 -84
-40 -107 -40 -171 0 -62 5 -83 30 -133 16 -32 45 -75 63 -95 48 -51 87 -111
80 -122 -3 -6 -1 -7 5 -3 7 4 12 2 12 -5 0 -7 10 -9 25 -7 13 3 23 2 20 -1 -6
-11 42 -142 61 -162 23 -26 70 -24 92 3 9 12 29 33 44 47 17 17 30 45 38 81
11 55 38 125 39 104 1 -8 17 -10 45 -8 24 3 55 0 70 -6 21 -7 26 -7 26 5 0 9
6 12 15 9 8 -4 15 -1 15 4 0 6 19 12 41 14 l42 3 19 65 c10 36 32 92 49 125
45 90 61 179 61 342 0 138 1 142 25 163 14 12 33 23 44 25 27 5 39 14 38 28 0
9 -2 9 -6 0 -2 -7 -9 -13 -15 -13 -6 0 -5 7 3 16 20 24 285 17 304 -9 7 -9 19
-17 28 -17 15 0 97 -41 123 -61 6 -5 15 -5 19 -1 5 4 5 2 2 -4 -3 -6 5 -21 18
-32 14 -12 25 -26 25 -31 0 -5 12 -12 26 -15 15 -4 24 -10 20 -13 -3 -4 2 -16
13 -27 25 -28 135 -245 128 -252 -3 -3 8 -28 24 -55 23 -36 31 -64 35 -111 3
-35 9 -79 14 -98 14 -50 12 -91 -5 -124 -17 -33 -19 -56 -5 -56 13 0 13 -77
-1 -82 -5 -2 -13 -22 -16 -46 -3 -23 -9 -39 -14 -36 -5 3 -6 -2 -3 -10 3 -9 1
-16 -5 -16 -6 0 -11 -7 -11 -16 0 -26 27 1 42 42 6 19 16 34 20 34 4 0 7 10 5
21 -2 17 4 22 28 25 24 2 27 1 12 -7 -9 -6 -22 -7 -27 -4 -6 3 -10 1 -10 -4 0
-6 4 -11 10 -11 5 0 -2 -16 -15 -36 -14 -20 -25 -42 -25 -48 0 -6 -20 -34 -45
-61 -25 -28 -43 -55 -40 -62 2 -7 -2 -10 -12 -6 -12 5 -14 1 -9 -14 4 -12 -2
-27 -16 -43 -49 -53 -60 -111 -94 -500 -3 -41 -10 -80 -15 -86 -5 -6 -6 -14
-2 -17 3 -4 1 -7 -6 -7 -7 0 -10 -4 -6 -9 3 -5 -22 -26 -56 -46 -129 -79 -251
-232 -248 -312 1 -25 2 -24 8 8 19 94 124 212 245 272 78 39 80 40 185 38 58
0 130 -4 159 -7 46 -6 53 -9 49 -25 -3 -11 0 -19 5 -19 6 0 8 -12 4 -30 -3
-19 -2 -29 4 -25 6 3 10 -2 11 -12 0 -10 6 -3 14 17 7 19 14 30 14 23 1 -15
-74 -278 -99 -346 -10 -29 -32 -104 -49 -167 -17 -63 -45 -164 -61 -225 -56
-208 -102 -380 -122 -457 l-20 -78 -132 -1 -131 -2 86 -7 c47 -5 104 -7 127
-6 38 2 42 0 36 -18 -4 -12 -12 -25 -18 -29 -10 -8 -533 -1 -729 9 -98 5 -137
23 -182 84 -48 65 -103 240 -279 885 -30 110 -71 254 -91 320 -20 66 -45 152
-55 190 -27 106 -96 343 -145 500 -24 77 -53 172 -63 210 -11 39 -32 111 -47
160 -15 50 -33 113 -40 140 -7 28 -27 103 -44 168 -57 220 -59 304 -13 437 17
49 89 127 143 156 38 20 279 121 293 123 5 1 2 -7 -5 -16z m1489 -8 c-3 -3 -9
2 -12 12 -6 14 -5 15 5 6 7 -7 10 -15 7 -18z m4222 1 c0 -2 -39 -18 -87 -35
-49 -17 -96 -36 -106 -42 -29 -16 -30 -5 -3 18 13 12 26 19 29 17 2 -2 37 7
78 20 76 26 89 29 89 22z m407 -21 c233 -40 324 -78 391 -163 52 -65 66 -114
65 -227 0 -122 -28 -292 -89 -536 -25 -101 -81 -330 -124 -509 -44 -179 -87
-350 -95 -380 -8 -30 -42 -167 -76 -305 -179 -720 -231 -920 -245 -935 -14
-17 -44 -95 -43 -114 0 -6 9 9 19 34 10 25 19 39 19 32 1 -22 -55 -136 -74
-152 -14 -11 -12 -6 5 17 13 18 21 35 18 38 -3 3 -17 -13 -33 -35 -27 -39 -83
-80 -111 -80 -8 0 -14 -4 -14 -10 0 -6 -87 -10 -241 -10 -196 0 -239 2 -231
13 13 16 26 97 46 287 9 80 23 204 31 275 8 72 14 150 14 175 -2 49 -2 48 -39
-300 -26 -245 -48 -387 -66 -422 l-15 -28 -192 -2 c-105 -1 -223 -2 -261 -2
-64 -1 -69 1 -82 26 -11 21 -11 28 -1 32 6 3 -33 5 -88 4 -55 -1 -117 2 -137
6 -49 11 -163 -10 -263 -47 -111 -41 -195 -106 -264 -203 -38 -54 -93 -96
-115 -88 -10 4 -16 19 -17 38 l-1 31 -7 -30 c-3 -16 -10 -29 -14 -27 -4 1 -16
2 -27 2 -11 0 -20 6 -20 14 0 8 -4 16 -10 18 -6 2 -5 19 1 47 5 24 8 62 5 85
-3 22 -5 53 -5 69 -1 20 -6 27 -21 27 -23 0 -26 -10 -8 -28 9 -9 7 -12 -9 -12
-11 0 -26 7 -33 15 -7 8 -23 15 -35 15 -39 0 -55 11 -75 51 -26 50 -25 73 5
134 13 28 25 56 25 63 0 6 4 12 8 12 8 0 62 125 62 143 0 4 -10 7 -22 7 -13 0
-44 -23 -78 -59 -48 -48 -62 -58 -84 -54 -26 5 -53 29 -44 39 3 3 13 -2 22
-11 9 -9 16 -11 16 -5 0 6 -7 13 -16 17 -9 3 -13 12 -10 22 5 12 2 11 -9 -3
-14 -18 -15 -18 -30 17 -12 30 -15 100 -15 418 0 210 -2 384 -5 387 -3 3 -6
-28 -7 -69 -2 -129 -4 -144 -13 -143 -6 1 -18 16 -27 35 -9 19 -17 28 -18 21
0 -7 5 -23 11 -34 8 -15 8 -22 0 -28 -9 -5 -7 -11 4 -20 13 -11 14 -10 9 5 -5
13 -4 16 4 11 7 -4 12 -17 12 -30 0 -12 5 -27 12 -34 9 -9 9 -12 -1 -12 -7 0
-21 10 -32 23 -10 12 -18 17 -19 10 0 -6 5 -15 10 -18 17 -11 50 -87 49 -114
-1 -17 -3 -20 -6 -8 -2 9 -9 17 -14 17 -6 0 -8 -4 -5 -9 4 -5 1 -11 -5 -13 -8
-3 -7 -13 5 -35 18 -37 24 -182 5 -150 -5 9 -7 22 -3 29 4 6 3 8 -3 5 -14 -9
-51 42 -100 138 -22 44 -59 111 -82 149 -24 38 -47 81 -53 95 -36 90 -80 219
-81 238 -1 12 -4 20 -6 17 -9 -9 -41 70 -37 89 3 12 3 16 0 9 -13 -28 -164
306 -179 395 -10 58 -16 74 -24 68 -13 -8 -34 104 -41 220 -4 61 -7 101 -8 90
-2 -16 -6 -14 -32 15 -33 39 -38 37 -15 -6 8 -16 15 -40 14 -54 -1 -25 -1 -25
-9 2 -7 24 -61 102 -81 118 -36 29 -37 105 -4 206 14 42 25 83 25 90 0 7 9 18
20 24 19 10 19 30 0 30 -10 0 -71 -142 -81 -190 -6 -30 -7 -27 -8 24 -1 43 6
73 25 117 14 32 24 64 22 71 -3 7 -15 -11 -28 -39 -26 -61 -39 -67 -41 -20 -2
30 -2 30 -6 4 -2 -15 -9 -25 -14 -22 -5 4 -9 -3 -9 -14 0 -25 -16 -36 -20 -13
-1 9 -2 55 -2 101 1 72 0 81 -13 71 -8 -7 -16 -9 -16 -4 -1 5 -7 -27 -14 -71
-7 -46 -9 -85 -4 -91 5 -6 6 -13 4 -16 -3 -3 -1 -17 5 -32 5 -15 7 -38 4 -52
-5 -20 -9 -22 -21 -12 -8 6 -22 29 -30 50 -8 21 -19 36 -23 33 -14 -9 -22 95
-17 206 5 113 6 122 26 159 12 23 12 24 -3 9 -20 -18 -25 -40 -37 -139 -8 -72
-27 -214 -34 -255 -2 -11 -4 -33 -4 -48 -1 -16 -5 -26 -11 -22 -5 3 -14 -13
-21 -35 -9 -30 -19 -42 -38 -47 -124 -30 -327 -178 -370 -271 -13 -28 -27 -49
-32 -47 -4 3 -15 -18 -25 -45 -12 -34 -21 -46 -27 -37 -5 7 -6 -2 -2 -23 4
-21 3 -30 -2 -23 -6 8 -9 1 -10 -22 -1 -19 3 -32 8 -29 12 7 12 8 -16 -66 -14
-36 -22 -50 -18 -30 4 19 7 45 7 57 1 11 4 19 8 16 11 -6 10 9 -1 26 -7 11
-11 9 -21 -9 -10 -18 -14 -20 -21 -9 -11 18 -31 116 -31 149 0 14 -4 27 -9 30
-12 8 12 93 31 107 9 6 25 30 35 52 10 23 21 41 25 41 5 0 11 8 14 17 6 16 6
16 -12 0 -10 -9 -21 -14 -24 -11 -3 3 -9 0 -14 -7 -4 -8 -3 -10 4 -5 17 10 15
1 -9 -42 l-21 -37 5 35 c5 32 5 33 -5 10 -5 -14 -19 -43 -29 -66 -10 -23 -19
-51 -19 -63 0 -12 -4 -20 -9 -16 -6 3 -7 -34 -5 -92 5 -92 4 -97 -11 -78 -14
17 -16 39 -12 135 3 103 8 128 45 234 23 66 47 124 53 130 8 8 9 5 3 -14 -4
-14 -8 -41 -9 -60 0 -19 -10 -57 -23 -84 -12 -27 -22 -56 -22 -65 1 -26 52
101 54 134 5 67 31 143 70 205 58 93 123 185 141 200 13 11 13 9 0 -23 -8 -20
-15 -42 -15 -49 1 -7 10 9 20 36 11 27 16 54 13 59 -3 6 -2 7 4 4 6 -4 34 30
64 74 45 67 78 99 194 193 142 115 326 248 333 241 2 -2 -26 -46 -62 -99 -58
-82 -124 -206 -111 -206 2 0 18 29 34 63 30 63 120 195 170 251 89 97 242 152
408 144 132 -6 191 -30 280 -112 62 -58 89 -95 204 -280 22 -35 59 -131 59
-152 0 -3 -8 0 -17 7 -13 11 -13 6 4 -21 12 -19 31 -73 44 -120 13 -47 25 -87
28 -90 8 -7 13 -29 15 -72 1 -20 7 -42 13 -50 26 -30 72 -151 106 -274 69
-249 119 -439 129 -489 5 -27 22 -95 38 -150 15 -55 38 -136 50 -180 13 -44
43 -133 67 -199 24 -65 41 -121 38 -124 -2 -3 -12 11 -20 31 -18 45 -27 48
-15 7 9 -32 47 -90 59 -90 3 0 15 -15 26 -32 10 -18 33 -48 49 -66 69 -75 106
-134 106 -167 0 -68 -36 -123 -64 -95 -7 7 -5 10 6 10 24 0 22 73 -2 102 -11
13 -19 17 -20 11 0 -19 -20 -16 -20 3 0 8 -5 12 -11 9 -5 -4 -8 -19 -5 -33 2
-15 8 -48 11 -74 6 -45 8 -48 36 -48 50 0 208 -60 221 -84 13 -25 17 -138 5
-179 -4 -16 -13 -27 -20 -24 -17 5 -21 65 -5 84 12 15 8 16 -37 10 -27 -3 -81
-9 -120 -13 -53 -5 -87 -15 -139 -43 -85 -45 -100 -71 -21 -36 63 28 126 32
177 11 19 -8 65 -20 102 -27 85 -14 131 -50 147 -115 6 -25 16 -47 22 -51 6
-4 8 0 4 10 -3 8 -9 31 -12 51 -6 31 -66 106 -85 106 -4 0 -1 26 6 58 15 62
10 134 -12 169 -8 13 -42 31 -94 48 -67 22 -80 30 -74 44 4 9 9 42 12 74 5 65
-6 88 -97 192 -28 32 -62 81 -75 109 -28 59 -117 316 -110 316 2 0 8 -9 12
-19 6 -18 16 -15 127 38 75 37 114 60 105 64 -8 4 -6 5 6 2 11 -3 56 6 101 19
44 13 111 27 149 31 38 4 80 12 94 18 14 5 34 11 45 12 11 1 38 3 60 5 l40 3
-45 6 c-26 3 -48 2 -52 -4 -9 -12 -10 -2 -2 20 5 11 9 13 14 5 5 -8 17 -7 46
4 70 27 194 57 206 50 8 -5 9 -2 5 11 -6 14 -3 17 18 13 14 -3 22 -1 18 5 -12
20 45 -8 117 -57 84 -57 232 -199 275 -263 32 -50 39 -54 24 -17 -16 43 -99
135 -236 264 -84 79 -87 84 -67 104 18 19 21 104 15 411 -2 99 0 207 4 240 10
90 35 257 41 266 2 4 -1 18 -7 32 -9 20 -7 31 10 63 11 21 20 33 21 27 0 -7 4
-13 10 -13 5 0 7 13 4 28 -6 28 29 129 49 143 5 3 8 10 8 15 -4 43 72 230 89
219 6 -4 20 28 24 56 1 3 8 12 16 21 8 8 38 40 67 70 94 100 130 125 228 158
201 67 281 72 502 35z m-4567 -77 c33 -70 38 -115 14 -144 -14 -18 -15 -18 -7
6 16 51 6 93 -45 193 -2 4 -1 7 3 7 3 0 19 -28 35 -62z m3347 -50 c-3 -8 -6
-5 -6 6 -1 11 2 17 5 13 3 -3 4 -12 1 -19z m-6 -50 c11 -21 11 -22 -4 -9 -10
7 -17 17 -17 22 0 15 9 10 21 -13z m9 -152 c0 -18 -2 -17 -15 8 -19 36 -19 42
0 26 8 -7 15 -22 15 -34z m-2903 -38 c-3 -8 -6 -5 -6 6 -1 11 2 17 5 13 3 -3
4 -12 1 -19z m24 -21 c-8 -8 -11 -7 -11 4 0 20 13 34 18 19 3 -7 -1 -17 -7
-23z m2866 1 c-3 -8 -6 -5 -6 6 -1 11 2 17 5 13 3 -3 4 -12 1 -19z m216 5 c-7
-2 -21 -2 -30 0 -10 3 -4 5 12 5 17 0 24 -2 18 -5z m-3051 -50 c-4 -55 -12
-54 -12 2 0 27 3 45 7 41 4 -4 6 -23 5 -43z m2819 4 c-10 -9 -11 -8 -5 6 3 10
9 15 12 12 3 -3 0 -11 -7 -18z m-2861 -94 c0 -25 -15 -12 -17 14 -1 19 1 22 8
12 5 -8 9 -20 9 -26z m27 15 c-3 -8 -6 -5 -6 6 -1 11 2 17 5 13 3 -3 4 -12 1
-19z m-64 -59 c7 -1 15 -1 20 0 26 4 -6 -16 -93 -58 -55 -26 -97 -44 -94 -39
6 10 71 45 129 70 24 10 33 18 23 19 -50 5 -76 3 -71 -5 3 -5 0 -7 -6 -5 -23
8 -14 24 22 41 19 10 39 23 44 30 5 9 9 2 11 -19 2 -18 9 -34 15 -34z m-99
-38 c-2 -3 -12 3 -22 13 -16 17 -16 18 5 5 12 -7 20 -15 17 -18z m56 19 c-8
-5 -22 -9 -30 -9 -10 0 -8 3 5 9 27 12 43 12 25 0z m100 -9 c0 -6 -4 -13 -10
-16 -5 -3 -19 -27 -30 -52 -11 -25 -23 -44 -26 -40 -3 3 2 17 12 31 9 15 14
29 12 32 -3 2 -13 -7 -22 -20 -9 -14 -28 -37 -43 -52 -16 -15 -19 -21 -9 -13
22 16 28 26 -121 -194 -89 -130 -119 -183 -198 -350 -32 -68 -47 -86 -121
-148 -46 -38 -84 -77 -84 -86 0 -13 3 -13 15 -3 16 13 21 0 6 -15 -6 -6 -4
-20 5 -35 l15 -25 -5 30 c-2 16 0 38 6 49 7 13 7 16 -1 12 -6 -4 -11 -3 -11 3
0 10 82 71 95 71 3 0 1 -9 -5 -19 -5 -11 -10 -69 -10 -130 l0 -110 47 -53 c64
-72 72 -80 102 -100 39 -27 8 -21 -62 10 -113 52 -227 206 -227 307 0 25 10
71 24 103 13 31 41 107 61 167 42 122 72 187 107 226 13 15 82 65 153 111 72
47 145 101 163 121 37 42 29 51 -9 11 -20 -21 -109 -88 -156 -117 -31 -19 42
136 81 172 23 22 221 130 239 131 4 0 7 -4 7 -9z m-2023 -113 c-2 -13 -4 -3
-4 22 0 25 2 35 4 23 2 -13 2 -33 0 -45z m90 -65 c-3 -10 -5 -2 -5 17 0 19 2
27 5 18 2 -10 2 -26 0 -35z m-90 -5 c-3 -8 -6 -5 -6 6 -1 11 2 17 5 13 3 -3 4
-12 1 -19z m-37 -20 c0 -5 -7 -3 -15 6 -8 8 -15 18 -15 22 0 3 7 1 15 -6 8 -7
15 -17 15 -22z m207 -30 c7 -1 10 -13 7 -32 -4 -25 -3 -27 5 -11 9 19 10 19
10 1 1 -19 -25 -56 -40 -56 -20 0 -39 35 -39 70 0 35 2 38 23 34 12 -3 27 -6
34 -6z m3609 -83 c49 -24 111 -63 137 -86 84 -74 216 -249 188 -249 -6 0 -1
-16 10 -35 12 -19 22 -35 24 -35 7 0 -8 41 -16 46 -5 3 -9 10 -9 16 0 6 7 5
17 -3 37 -32 -55 119 -111 180 -49 53 -15 32 79 -48 90 -78 108 -100 100 -123
-3 -8 8 -45 25 -82 16 -37 30 -72 30 -77 0 -6 9 -29 21 -52 24 -48 38 -154 19
-142 -9 5 -9 2 -3 -11 5 -11 8 -32 7 -49 -1 -16 -2 -48 -3 -70 l-2 -40 -15 54
c-18 69 -27 80 -17 21 15 -86 10 -120 -24 -149 -48 -40 -103 -72 -137 -78 -17
-3 -36 -10 -42 -15 -6 -4 -30 -9 -53 -11 -22 -1 -41 -6 -41 -10 0 -5 -5 -5
-11 -1 -9 5 -10 -2 -6 -22 l6 -29 -14 31 c-8 18 -34 110 -59 205 -73 286 -106
412 -120 459 -8 25 -24 81 -36 125 -12 44 -42 130 -66 192 -24 61 -44 116 -44
122 0 26 80 10 166 -34z m-3702 -74 c-6 -6 -34 20 -34 32 0 6 8 2 19 -9 10
-10 17 -21 15 -23z m2412 -96 c51 -15 76 -36 133 -115 22 -31 31 -57 37 -107
4 -37 15 -85 25 -107 9 -23 21 -59 25 -81 l7 -40 -38 40 c-42 44 -42 41 -5
-22 14 -24 31 -43 37 -43 23 0 62 -103 44 -115 -5 -3 -12 5 -14 17 -3 18 -5
17 -6 -7 -1 -21 -4 -26 -10 -16 -6 9 -11 10 -15 2 -4 -6 2 -37 14 -67 11 -31
19 -59 16 -61 -2 -3 4 -30 15 -61 22 -62 36 -180 18 -149 -6 9 -15 14 -21 11
-7 -4 -8 -2 -4 5 8 13 -14 81 -26 81 -5 0 -4 -9 2 -20 6 -11 9 -20 6 -20 -3 0
-19 27 -37 60 -41 78 -59 78 -19 1 47 -95 73 -178 66 -216 -7 -35 -36 -70 -36
-44 0 11 -2 11 -10 -1 -7 -11 -10 -6 -10 21 0 51 -26 118 -58 151 -29 30 -54
39 -30 11 26 -31 30 -55 11 -78 -10 -11 -6 -9 8 6 l26 26 13 -53 c17 -68 1
-222 -21 -208 -5 3 -6 -2 -3 -10 9 -22 -66 -346 -107 -469 -54 -157 -262 -607
-275 -594 -3 3 3 22 14 44 11 21 23 49 27 63 8 24 7 24 -17 -5 -14 -16 -30
-45 -36 -64 -7 -19 -30 -65 -52 -104 -22 -38 -38 -72 -36 -75 3 -2 24 25 47
62 23 36 43 66 45 66 5 0 -16 -54 -24 -60 -4 -3 -27 -45 -52 -95 -25 -49 -63
-116 -84 -150 -22 -33 -52 -82 -68 -110 -32 -57 -37 -50 -8 10 23 49 26 73 7
56 -8 -6 -17 -8 -20 -4 -4 3 -7 0 -7 -8 0 -12 -2 -11 -10 1 -8 12 -10 11 -8
-5 3 -40 -2 -61 -11 -47 -5 9 -12 -9 -21 -50 -18 -92 -20 -99 -32 -92 -7 4 -8
2 -4 -4 4 -6 14 -8 22 -5 14 5 14 3 0 -25 -9 -17 -16 -39 -17 -49 0 -14 -2
-13 -9 5 -5 12 -19 32 -30 45 -12 12 -19 30 -16 40 3 14 0 17 -11 13 -12 -5
-14 -1 -10 14 3 11 2 18 -3 15 -4 -2 -22 30 -40 73 -29 69 -60 126 -60 110 0
-15 112 -274 125 -288 48 -53 59 -163 23 -217 -22 -31 -38 -42 -38 -25 0 4 5
13 11 19 8 8 1 11 -27 10 -22 -1 -52 2 -67 6 -26 7 -28 6 -22 -14 5 -14 4 -19
-4 -15 -6 4 -11 14 -11 22 0 16 -127 80 -138 69 -4 -4 4 -15 17 -26 13 -10 19
-19 14 -19 -5 0 -14 5 -20 11 -9 9 -14 5 -19 -15 -3 -14 -8 -26 -10 -26 -2 0
-20 9 -40 20 -54 31 -51 18 4 -18 40 -26 128 -99 220 -181 17 -15 22 -31 21
-63 0 -24 -3 -37 -6 -30 -2 6 -15 12 -28 12 -13 0 -27 5 -31 11 -3 6 -15 9
-25 6 -11 -3 -17 -1 -14 3 6 10 -149 170 -164 170 -15 0 -15 -2 23 -93 33 -80
40 -106 37 -137 -1 -9 -8 -4 -17 13 -8 15 -17 27 -20 27 -2 0 0 -9 6 -20 6
-12 7 -20 1 -20 -5 0 -12 6 -14 13 -3 6 -6 3 -6 -8 -1 -12 3 -25 8 -30 6 -6
16 -40 23 -77 7 -40 16 -62 20 -55 24 37 32 -62 11 -138 -4 -15 -2 -17 6 -9 7
6 15 44 18 83 4 54 9 69 16 56 10 -18 5 -62 -14 -128 -9 -32 -13 -37 -31 -31
-17 5 -20 3 -14 -12 5 -13 4 -16 -3 -9 -6 6 -7 24 -1 49 7 31 5 45 -12 75 -11
20 -22 37 -23 39 -2 2 -1 -15 2 -39 5 -33 3 -40 -7 -34 -10 6 -12 4 -7 -8 3
-10 2 -17 -4 -17 -6 0 -9 -12 -6 -27 2 -16 2 -23 0 -17 -2 5 -17 18 -33 28
-17 9 -30 23 -31 29 -3 46 -30 84 -50 71 -5 -3 -9 -1 -9 4 0 13 -67 81 -110
113 -19 14 -69 36 -110 50 -64 20 -95 24 -208 24 l-132 0 5 110 c3 61 5 113 5
117 0 10 88 55 165 83 102 39 261 115 240 114 -11 0 -38 -8 -60 -19 -44 -20
-55 -19 -35 5 11 14 10 17 -9 22 -13 3 -20 11 -17 19 5 13 -6 19 -28 15 -4 -1
-19 5 -32 14 -30 19 -34 19 -34 -2 0 -9 -3 -13 -7 -9 -8 8 -9 10 -13 49 -2 17
-3 18 -7 4 -9 -33 -23 -6 -23 45 0 59 8 69 146 166 49 35 89 67 90 70 3 41 47
210 147 572 35 129 88 323 116 430 28 107 70 254 92 325 86 273 111 351 126
395 9 24 26 83 39 130 12 47 47 157 79 245 31 88 59 169 62 180 32 123 156
239 332 310 106 44 224 55 307 30z m-1052 -109 c-9 -26 -18 -45 -20 -43 -2 2
3 25 12 51 9 26 18 45 20 43 2 -2 -3 -25 -12 -51z m387 -263 c-12 -20 -14 -14
-5 12 4 9 9 14 11 11 3 -2 0 -13 -6 -23z m2879 -149 c-11 -54 -33 -120 -48
-147 -28 -52 -44 -49 -18 3 8 17 10 28 5 24 -14 -8 -1 41 27 101 12 28 28 70
35 94 22 75 21 27 -1 -75z m-1923 34 c-3 -8 -6 -5 -6 6 -1 11 2 17 5 13 3 -3
4 -12 1 -19z m-1108 -28 c0 -10 -3 -8 -9 5 -12 27 -12 43 0 25 5 -8 9 -22 9
-30z m11 -46 c0 -8 -4 -12 -10 -9 -5 3 -10 13 -10 21 0 8 5 12 10 9 6 -3 10
-13 10 -21z m1094 -164 c5 -17 4 -20 -2 -10 -5 8 -13 26 -16 40 -5 17 -4 20 2
10 5 -8 13 -26 16 -40z m6 -64 c0 -5 -7 -1 -15 10 -8 10 -14 24 -14 29 0 6 6
1 14 -9 8 -11 15 -24 15 -30z m-1423 -10 c-10 -8 -17 -16 -15 -19 2 -3 -1 -9
-6 -14 -6 -5 -6 -2 -1 6 6 11 4 13 -8 8 -45 -18 -48 -16 -7 7 50 28 64 32 37
12z m3145 -9 c14 -22 8 -37 -14 -37 -13 0 -40 -3 -60 -6 -31 -6 -38 -4 -38 10
0 11 -5 15 -12 11 -7 -4 0 5 16 20 24 22 35 26 65 20 20 -4 39 -12 43 -18z
m-127 -47 c-3 -5 -11 -10 -16 -10 -6 0 -7 5 -4 10 3 6 11 10 16 10 6 0 7 -4 4
-10z m-1606 -130 c1 -13 0 -13 -9 0 -5 8 -9 24 -9 35 l0 20 9 -20 c5 -11 9
-27 9 -35z m134 -147 c-7 -2 -21 -2 -30 0 -10 3 -4 5 12 5 17 0 24 -2 18 -5z
m-276 -255 c-3 -8 -6 -5 -6 6 -1 11 2 17 5 13 3 -3 4 -12 1 -19z m-10 -50 c-3
-7 -5 -2 -5 12 0 14 2 19 5 13 2 -7 2 -19 0 -25z m554 -5 c13 -16 12 -17 -3
-4 -10 7 -18 15 -18 17 0 8 8 3 21 -13z m-565 -73 c0 -33 -3 -53 -6 -44 -4 11
-9 5 -17 -20 -10 -31 -9 -36 8 -41 23 -8 16 -25 -9 -20 -12 2 -17 -4 -18 -21
-1 -13 2 -21 7 -18 5 3 9 11 9 17 0 7 9 13 20 13 15 0 18 -5 14 -18 -5 -18 -4
-18 28 0 29 16 56 19 173 20 98 0 149 -4 171 -14 24 -10 61 -12 162 -7 73 3
132 10 132 15 0 4 -9 17 -20 28 -21 21 -25 30 -12 30 5 0 27 -29 51 -64 37
-56 43 -74 51 -143 4 -43 12 -88 16 -99 15 -38 74 -102 104 -114 34 -14 33
-11 34 -107 l1 -73 -290 -1 c-159 0 -428 -1 -596 -2 l-306 -2 40 80 c21 44 46
97 54 117 9 21 19 35 24 33 4 -3 11 0 15 6 5 8 3 9 -6 4 -16 -10 -7 20 32 105
30 66 98 267 119 353 6 26 12 47 14 47 1 0 1 -27 1 -60z m592 25 c-3 -3 -9 2
-12 12 -6 14 -5 15 5 6 7 -7 10 -15 7 -18z m41 -90 c0 -5 -8 6 -19 25 -11 19
-19 40 -19 45 0 6 8 -6 19 -25 11 -19 19 -39 19 -45z m908 -47 c-3 -8 -6 -5
-6 6 -1 11 2 17 5 13 3 -3 4 -12 1 -19z m158 -347 c3 -5 2 -12 -3 -15 -5 -3
-9 1 -9 9 0 17 3 19 12 6z m25 -21 c0 -5 -5 -10 -11 -10 -5 0 -7 5 -4 10 3 6
8 10 11 10 2 0 4 -4 4 -10z m-780 -272 c0 -5 -10 -8 -22 -7 -13 0 -17 3 -10 6
26 10 1 18 -50 14 -41 -3 -48 -6 -33 -12 12 -6 -205 -7 -520 -3 -297 3 -559 6
-583 6 -34 0 -42 3 -38 15 3 8 6 19 6 24 0 5 249 10 603 11 l602 3 22 -25 c12
-14 22 -28 23 -32z m1108 42 c17 -18 52 -121 82 -237 6 -24 15 -43 20 -43 6 0
10 5 10 10 0 14 33 13 48 -2 7 -7 12 -20 12 -30 0 -10 9 -35 20 -55 11 -21 20
-46 20 -56 0 -27 29 -79 58 -101 14 -11 38 -49 55 -85 16 -36 37 -73 46 -82 9
-8 31 -32 49 -53 18 -20 37 -34 42 -31 6 3 10 1 10 -4 0 -6 -5 -11 -11 -11 -6
0 48 -58 119 -130 72 -71 134 -130 138 -130 13 0 130 -55 163 -77 19 -12 74
-61 121 -108 98 -96 115 -132 115 -240 0 -78 -20 -105 -110 -145 -38 -18 -79
-36 -90 -41 -11 -5 -42 -13 -70 -19 -27 -6 -84 -22 -125 -35 -41 -13 -127 -36
-190 -51 -107 -24 -127 -26 -275 -21 -169 6 -242 19 -354 64 -98 39 -134 65
-196 143 -79 99 -82 101 -243 182 -115 58 -151 81 -173 111 -38 52 -60 156
-61 291 0 61 -6 143 -14 181 -13 67 -28 180 -43 312 -5 47 -4 64 6 67 7 3 12
9 12 13 -3 11 12 43 20 43 3 0 6 -15 6 -32 0 -26 4 -32 18 -30 12 2 17 -4 17
-21 0 -51 54 -56 79 -8 6 10 26 37 46 61 20 24 34 49 31 56 -3 8 0 11 10 7 11
-4 14 8 14 69 0 66 3 76 28 103 39 44 170 108 292 143 171 50 218 54 248 22z
m-265 -7 c-15 -6 -75 -32 -133 -58 -148 -65 -137 -62 -122 -42 8 9 11 21 7 26
-3 7 0 8 9 5 9 -3 16 -1 16 4 0 6 10 14 21 17 15 5 18 9 9 15 -24 15 99 46
183 45 l38 0 -28 -12z m-689 -89 c3 -8 2 -12 -4 -9 -6 3 -10 10 -10 16 0 14 7
11 14 -7z m411 -24 c-1 -11 -4 -22 -7 -25 -4 -5 -4 34 1 43 4 8 7 -1 6 -18z
m-44 -93 c-10 -9 -11 -8 -5 6 3 10 9 15 12 12 3 -3 0 -11 -7 -18z m1453 -2
c-8 -19 15 -48 31 -41 9 3 14 -34 19 -137 9 -167 8 -125 6 -419 -2 -204 -4
-236 -17 -231 -11 4 -12 8 -3 13 9 6 7 10 -7 14 -34 11 -39 45 -36 219 2 109
-1 166 -7 162 -6 -3 -10 -2 -10 4 0 5 4 11 9 13 4 2 6 94 2 206 -4 131 -2 204
4 206 6 3 11 5 12 5 1 1 0 -6 -3 -14z m-1687 -129 c-5 -14 -66 -26 -73 -15 -3
5 9 9 27 9 32 0 32 0 13 21 -19 21 -19 21 9 8 15 -7 26 -17 24 -23z m-93 8 c3
-8 2 -12 -4 -9 -6 3 -10 10 -10 16 0 14 7 11 14 -7z m1913 -462 c-1 -81 -3
-12 -3 153 0 165 2 231 3 147 2 -84 2 -219 0 -300z m-1627 413 c-7 -8 -16 -15
-21 -15 -5 0 -1 8 9 18 20 22 31 19 12 -3z m1468 -100 c-1 -111 -6 -95 -10 37
-2 47 0 81 4 75 4 -7 7 -57 6 -112z m-4729 -102 c-1 -27 -4 -73 -9 -103 -6
-49 -7 -44 -9 48 0 62 3 102 9 102 6 0 10 -21 9 -47z m-42 -95 c-2 -13 -4 -3
-4 22 0 25 2 35 4 23 2 -13 2 -33 0 -45z m68 -80 c-2 -46 -6 -101 -9 -122 -3
-22 -2 -44 2 -50 4 -6 4 -47 1 -91 l-6 -80 1 82 c1 76 0 82 -19 80 -17 -2 -20
5 -23 43 -2 37 0 42 9 27 6 -11 9 -30 6 -43 -2 -13 -1 -24 3 -24 9 0 26 152
22 189 -3 25 5 71 12 71 2 0 3 -37 1 -82z m-69 -16 c-11 -10 -14 3 -7 38 l6
35 3 -33 c2 -19 1 -36 -2 -40z m311 -55 c23 8 15 -1 -14 -16 -22 -11 -23 -10
-22 21 0 30 1 31 9 11 7 -16 14 -21 27 -16z m-315 -89 c-9 -9 -12 -4 -11 23 0
32 1 33 11 11 8 -17 8 -26 0 -34z m1053 22 c-3 -5 -11 -10 -16 -10 -6 0 -7 5
-4 10 3 6 11 10 16 10 6 0 7 -4 4 -10z m3765 -124 c0 -3 -4 -8 -10 -11 -5 -3
-10 -1 -10 4 0 6 5 11 10 11 6 0 10 -2 10 -4z m107 -118 c-2 -24 -4 -5 -4 42
0 47 2 66 4 43 2 -24 2 -62 0 -85z m-4914 46 c-1 -36 -4 -72 -7 -80 -3 -9 1
-14 11 -14 9 0 14 -2 11 -5 -3 -3 -23 -2 -44 3 -38 8 -38 8 -11 15 22 6 27 13
27 37 0 16 -4 32 -10 35 -15 9 -12 32 7 55 10 11 18 20 18 20 0 0 -1 -29 -2
-66z m4822 36 c3 -6 -1 -7 -9 -4 -18 7 -21 14 -7 14 6 0 13 -4 16 -10z m-4775
-100 l-8 -35 -1 31 c-1 17 2 34 6 37 11 12 12 3 3 -33z m-70 14 c0 -8 -5 -12
-10 -9 -6 4 -8 11 -5 16 9 14 15 11 15 -7z m1008 -29 c14 0 27 -6 30 -13 2 -8
-2 -10 -13 -6 -9 4 -25 -2 -38 -12 -16 -14 -19 -15 -9 -2 11 14 10 18 -7 28
-17 9 -20 8 -15 -5 4 -9 0 -15 -9 -15 -22 0 -27 -23 -8 -37 14 -11 11 -12 -15
-13 -41 0 -60 21 -33 38 10 7 19 19 19 27 0 9 6 12 15 9 8 -4 17 1 21 10 5 13
9 14 21 4 8 -7 27 -12 41 -13z m-941 -49 c143 -26 372 -100 436 -142 l38 -25
-3 -72 -3 -72 -35 -6 -35 -6 38 -2 c57 -2 93 -27 107 -75 15 -52 46 -86 79
-86 31 0 101 63 101 90 0 10 5 22 10 25 10 6 14 -74 10 -185 -1 -25 4 -103 10
-175 27 -308 28 -342 19 -419 -6 -43 -17 -89 -26 -102 -15 -24 -122 -93 -197
-127 -37 -17 -38 -17 -31 0 4 10 9 27 10 38 2 16 1 16 -2 2 -3 -11 -23 -35
-46 -55 -22 -21 -82 -78 -131 -128 -104 -105 -160 -137 -314 -183 -130 -38
-250 -51 -486 -52 -197 0 -261 6 -429 41 -151 32 -268 86 -283 132 -10 32 -12
161 -3 186 5 13 18 26 29 29 11 3 20 12 20 20 0 25 37 87 72 119 39 35 121 96
198 147 61 40 193 161 189 172 -1 5 16 27 38 49 47 47 184 247 201 291 6 17
18 59 27 95 9 36 22 74 30 86 7 12 17 38 21 59 6 35 54 95 75 95 5 0 9 40 9
90 0 49 5 100 11 114 22 47 101 57 246 32z m168 -2 c36 -3 44 -2 30 5 -18 8
-16 10 10 10 40 1 105 -17 105 -29 0 -6 5 -10 11 -10 5 0 8 4 5 9 -11 18 64
-13 81 -33 11 -13 12 -16 3 -9 -11 9 -19 8 -33 -2 -17 -12 -16 -14 10 -24 54
-22 -16 -4 -137 33 -136 42 -211 70 -165 61 17 -3 53 -8 80 -11z m774 -7 c-2
-1 -13 -9 -24 -17 -19 -14 -19 -14 -6 3 7 9 18 17 24 17 6 0 8 -1 6 -3z m-242
-399 c-2 -13 -4 -3 -4 22 0 25 2 35 4 23 2 -13 2 -33 0 -45z m-140 20 c-3 -8
-6 -5 -6 6 -1 11 2 17 5 13 3 -3 4 -12 1 -19z"/>
<path d="M5234 10982 c-16 -13 -19 -26 -16 -59 3 -27 9 -43 17 -43 7 0 18 -13
24 -30 5 -16 15 -30 20 -30 6 0 13 0 16 0 3 0 4 3 3 8 -2 4 -6 6 -10 5 -13 -5
-9 13 14 64 12 26 24 53 27 58 2 6 -3 4 -12 -4 -15 -12 -17 -10 -18 15 -1 21
-3 24 -6 9 -9 -36 -23 -41 -23 -7 0 36 -6 39 -36 14z"/>
<path d="M5080 10890 c0 -13 20 -13 40 0 12 8 9 10 -12 10 -16 0 -28 -4 -28
-10z"/>
<path d="M5178 10853 c-16 -8 -28 -18 -28 -24 0 -5 15 -2 33 7 40 20 40 21 30
26 -4 3 -20 -2 -35 -9z"/>
<path d="M5776 10684 c-23 -23 -20 -30 4 -9 11 10 20 20 20 22 0 7 -9 2 -24
-13z"/>
<path d="M4510 10770 c0 -5 5 -10 11 -10 5 0 7 5 4 10 -3 6 -8 10 -11 10 -2 0
-4 -4 -4 -10z"/>
<path d="M4619 10682 c14 -11 31 -18 38 -15 17 7 17 23 1 23 -7 0 -24 3 -38 6
l-25 6 24 -20z"/>
<path d="M4660 10652 c0 -5 12 -14 26 -20 14 -7 22 -17 19 -22 -3 -6 0 -10 9
-10 29 0 46 13 45 34 -1 17 -2 18 -6 3 -5 -20 -30 -16 -70 9 -13 8 -23 11 -23
6z"/>
<path d="M4828 9975 c-3 -14 -1 -25 3 -25 5 0 9 11 9 25 0 14 -2 25 -4 25 -2
0 -6 -11 -8 -25z"/>
<path d="M6275 9713 c17 -2 53 -10 80 -17 28 -8 73 -17 100 -21 69 -10 152
-52 202 -103 38 -39 125 -192 144 -252 l7 -25 1 24 c1 23 -48 128 -94 200 -55
88 -141 143 -257 166 -40 8 -89 19 -108 25 -19 5 -51 9 -70 9 -33 -2 -34 -2
-5 -6z"/>
<path d="M3741 9914 c0 -11 3 -14 6 -6 3 7 2 16 -1 19 -3 4 -6 -2 -5 -13z"/>
<path d="M4593 9835 c0 -22 2 -30 4 -17 2 12 2 30 0 40 -3 9 -5 -1 -4 -23z"/>
<path d="M5653 9504 c-20 -18 -22 -22 -7 -15 21 10 52 41 41 41 -3 0 -19 -12
-34 -26z"/>
<path d="M3733 9480 c0 -25 2 -35 4 -22 2 12 2 32 0 45 -2 12 -4 2 -4 -23z"/>
<path d="M5716 9474 c-9 -24 -2 -26 12 -4 7 11 8 20 3 20 -5 0 -12 -7 -15 -16z"/>
<path d="M5570 9455 c-14 -8 -20 -14 -14 -15 5 0 19 7 30 15 24 18 16 19 -16
0z"/>
<path d="M3722 9280 c0 -19 2 -27 5 -17 2 9 2 25 0 35 -3 9 -5 1 -5 -18z"/>
<path d="M2318 8903 c6 -2 18 -2 25 0 6 3 1 5 -13 5 -14 0 -19 -2 -12 -5z"/>
<path d="M5931 8404 c0 -11 3 -14 6 -6 3 7 2 16 -1 19 -3 4 -6 -2 -5 -13z"/>
<path d="M3385 8310 c-3 -6 1 -7 9 -4 18 7 21 14 7 14 -6 0 -13 -4 -16 -10z"/>
<path d="M3576 8216 c-3 -13 -9 -31 -12 -40 -3 -9 -2 -16 4 -16 5 0 13 16 17
36 7 41 1 58 -9 20z"/>
<path d="M3544 8114 c-10 -22 -20 -43 -23 -49 -2 -5 2 -3 10 5 18 19 41 71 35
77 -3 3 -13 -12 -22 -33z"/>
<path d="M3492 8023 c-12 -13 -22 -32 -22 -40 0 -9 11 1 25 22 31 44 29 54 -3
18z"/>
<path d="M4788 7683 c7 -3 16 -2 19 1 4 3 -2 6 -13 5 -11 0 -14 -3 -6 -6z"/>
<path d="M4858 7673 c7 -3 16 -2 19 1 4 3 -2 6 -13 5 -11 0 -14 -3 -6 -6z"/>
<path d="M4973 7663 c9 -2 25 -2 35 0 9 3 1 5 -18 5 -19 0 -27 -2 -17 -5z"/>
<path d="M5041 7656 c2 -2 40 -6 84 -9 46 -3 72 -1 60 3 -19 8 -153 14 -144 6z"/>
<path d="M5583 7653 c9 -2 23 -2 30 0 6 3 -1 5 -18 5 -16 0 -22 -2 -12 -5z"/>
<path d="M5528 7643 c7 -3 16 -2 19 1 4 3 -2 6 -13 5 -11 0 -14 -3 -6 -6z"/>
<path d="M5971 7584 c0 -11 3 -14 6 -6 3 7 2 16 -1 19 -3 4 -6 -2 -5 -13z"/>
<path d="M4830 7561 c8 -5 26 -12 40 -15 l25 -7 -25 15 c-14 9 -32 15 -40 15
-13 0 -13 -1 0 -8z"/>
<path d="M5867 6593 c-4 -3 -7 -13 -7 -22 1 -13 3 -13 11 2 11 19 8 33 -4 20z"/>
<path d="M5790 6370 c0 -16 2 -30 4 -30 2 0 6 14 8 30 3 17 1 30 -4 30 -4 0
-8 -13 -8 -30z"/>
<path d="M6646 8133 c-6 -14 -5 -15 5 -6 7 7 10 15 7 18 -3 3 -9 -2 -12 -12z"/>
<path d="M1355 8150 c-10 -11 -16 -22 -14 -24 2 -2 12 7 22 20 22 29 17 32 -8
4z"/>
<path d="M1050 7909 c0 -11 5 -17 10 -14 6 3 10 13 10 21 0 8 -4 14 -10 14 -5
0 -10 -9 -10 -21z"/>
<path d="M783 7735 c0 -22 2 -30 4 -17 2 12 2 30 0 40 -3 9 -5 -1 -4 -23z"/>
<path d="M792 7670 c0 -14 4 -36 8 -50 l8 -25 0 25 c0 14 -4 36 -8 50 l-8 25
0 -25z"/>
<path d="M811 7574 c0 -11 3 -14 6 -6 3 7 2 16 -1 19 -3 4 -6 -2 -5 -13z"/>
<path d="M831 7500 c0 -8 4 -22 9 -30 12 -18 12 -2 0 25 -6 13 -9 15 -9 5z"/>
<path d="M1941 7294 c0 -11 3 -14 6 -6 3 7 2 16 -1 19 -3 4 -6 -2 -5 -13z"/>
<path d="M890 7291 c0 -6 4 -13 10 -16 6 -3 7 1 4 9 -7 18 -14 21 -14 7z"/>
<path d="M1041 6800 c0 -8 4 -24 9 -35 5 -13 9 -14 9 -5 0 8 -4 24 -9 35 -5
13 -9 14 -9 5z"/>
<path d="M2042 6725 c0 -16 2 -22 5 -12 2 9 2 23 0 30 -3 6 -5 -1 -5 -18z"/>
<path d="M2052 6650 c0 -14 2 -19 5 -12 2 6 2 18 0 25 -3 6 -5 1 -5 -13z"/>
<path d="M1091 6635 c1 -19 18 -51 18 -35 0 8 -4 22 -9 30 -5 8 -9 11 -9 5z"/>
<path d="M1132 6495 c0 -5 6 -26 13 -45 7 -19 14 -28 14 -20 0 8 -6 29 -14 45
-7 17 -13 26 -13 20z"/>
<path d="M1161 6394 c0 -11 3 -14 6 -6 3 7 2 16 -1 19 -3 4 -6 -2 -5 -13z"/>
<path d="M2082 6380 c0 -19 2 -27 5 -17 2 9 2 25 0 35 -3 9 -5 1 -5 -18z"/>
<path d="M1182 6325 c0 -11 3 -29 8 -40 11 -25 11 1 0 35 -6 20 -8 21 -8 5z"/>
<path d="M2093 6300 c0 -25 2 -35 4 -22 2 12 2 32 0 45 -2 12 -4 2 -4 -23z"/>
<path d="M2142 6250 c0 -19 2 -27 5 -17 2 9 2 25 0 35 -3 9 -5 1 -5 -18z"/>
<path d="M1201 6244 c0 -11 3 -14 6 -6 3 7 2 16 -1 19 -3 4 -6 -2 -5 -13z"/>
<path d="M2102 6220 c0 -19 2 -27 5 -17 2 9 2 25 0 35 -3 9 -5 1 -5 -18z"/>
<path d="M2483 6213 c9 -2 25 -2 35 0 9 3 1 5 -18 5 -19 0 -27 -2 -17 -5z"/>
<path d="M2113 6125 c0 -27 2 -38 4 -22 2 15 2 37 0 50 -2 12 -4 0 -4 -28z"/>
<path d="M2151 6144 c0 -11 3 -14 6 -6 3 7 2 16 -1 19 -3 4 -6 -2 -5 -13z"/>
<path d="M1240 6091 c0 -6 4 -13 10 -16 6 -3 7 1 4 9 -7 18 -14 21 -14 7z"/>
<path d="M2123 5995 c0 -44 2 -61 4 -37 2 23 2 59 0 80 -2 20 -4 1 -4 -43z"/>
<path d="M1286 5940 c4 -19 11 -44 15 -55 6 -14 7 -9 3 15 -4 19 -11 44 -15
55 -6 14 -7 9 -3 -15z"/>
<path d="M2218 5953 c7 -3 16 -2 19 1 4 3 -2 6 -13 5 -11 0 -14 -3 -6 -6z"/>
<path d="M2537 5953 c18 -2 50 -2 70 0 21 2 7 4 -32 4 -38 0 -55 -2 -38 -4z"/>
<path d="M2750 5950 c-13 -8 -12 -10 3 -10 9 0 17 5 17 10 0 12 -1 12 -20 0z"/>
<path d="M2134 5750 c29 -630 66 -920 119 -920 5 0 2 9 -8 20 -36 40 -66 286
-90 735 -9 165 -19 302 -22 305 -3 3 -3 -60 1 -140z"/>
<path d="M1334 5765 c16 -70 28 -107 32 -103 5 5 -24 120 -33 128 -3 3 -3 -8
1 -25z"/>
<path d="M1391 5560 c0 -8 4 -24 9 -35 5 -13 9 -14 9 -5 0 8 -4 24 -9 35 -5
13 -9 14 -9 5z"/>
<path d="M1411 5484 c0 -11 3 -14 6 -6 3 7 2 16 -1 19 -3 4 -6 -2 -5 -13z"/>
<path d="M1431 5420 c0 -8 4 -24 9 -35 5 -13 9 -14 9 -5 0 8 -4 24 -9 35 -5
13 -9 14 -9 5z"/>
<path d="M1486 5220 c4 -19 11 -44 15 -55 6 -14 7 -9 3 15 -4 19 -11 44 -15
55 -6 14 -7 9 -3 -15z"/>
<path d="M1536 5040 c3 -14 10 -32 15 -40 7 -13 8 -13 8 0 0 8 -6 26 -15 40
l-15 25 7 -25z"/>
<path d="M1684 4905 c14 -10 41 -15 90 -14 l71 2 -73 7 c-40 5 -80 11 -90 14
-14 5 -14 3 2 -9z"/>
<path d="M1963 4893 c26 -2 67 -2 90 0 23 2 2 3 -48 3 -49 0 -68 -1 -42 -3z"/>
<path d="M7555 8050 c11 -5 27 -9 35 -9 9 0 8 4 -5 9 -11 5 -27 9 -35 9 -9 0
-8 -4 5 -9z"/>
<path d="M4155 8010 c-22 -3 -56 -13 -75 -22 -47 -20 -142 -82 -160 -103 -8
-10 12 1 45 24 112 79 209 108 320 97 41 -4 55 -3 45 4 -17 11 -114 11 -175 0z"/>
<path d="M7676 7987 c3 -10 9 -15 12 -12 3 3 0 11 -7 18 -10 9 -11 8 -5 -6z"/>
<path d="M7718 7925 c5 -11 12 -27 15 -35 5 -13 6 -13 6 1 1 8 -6 24 -15 35
-15 19 -15 19 -6 -1z"/>
<path d="M4215 7740 c-3 -5 -2 -10 4 -10 5 0 13 5 16 10 3 6 2 10 -4 10 -5 0
-13 -4 -16 -10z"/>
<path d="M4355 7740 c4 -6 -9 -11 -32 -11 -25 -1 -30 -3 -14 -6 31 -6 73 5 66
17 -3 6 -11 10 -16 10 -6 0 -7 -4 -4 -10z"/>
<path d="M4460 7730 c-9 -6 -10 -10 -3 -10 6 0 15 5 18 10 8 12 4 12 -15 0z"/>
<path d="M4535 7730 c-4 -6 -16 -8 -28 -5 -18 5 -19 4 -5 -5 17 -11 48 -4 48
11 0 12 -7 11 -15 -1z"/>
<path d="M3797 7723 c-4 -3 -7 -11 -7 -17 0 -6 5 -5 12 2 6 6 9 14 7 17 -3 3
-9 2 -12 -2z"/>
<path d="M4088 7716 c-31 -7 -63 -18 -72 -25 -26 -22 -13 -22 32 -1 22 11 51
20 64 20 13 0 30 5 38 10 19 12 10 11 -62 -4z"/>
<path d="M3852 7683 c-14 -27 -26 -112 -13 -93 6 8 11 25 11 38 0 13 5 32 11
44 6 11 8 22 6 25 -3 2 -10 -4 -15 -14z"/>
<path d="M4495 7680 c3 -5 8 -10 11 -10 2 0 4 5 4 10 0 6 -5 10 -11 10 -5 0
-7 -4 -4 -10z"/>
<path d="M4540 7680 c0 -5 5 -10 10 -10 6 0 10 5 10 10 0 6 -4 10 -10 10 -5 0
-10 -4 -10 -10z"/>
<path d="M4666 7643 c20 -29 38 -53 40 -53 8 0 -14 35 -46 70 -28 32 -28 30 6
-17z"/>
<path d="M3761 7634 c0 -11 -9 -38 -20 -60 -19 -41 -35 -94 -27 -94 10 0 58
139 53 156 -4 17 -5 17 -6 -2z"/>
<path d="M7731 7624 c0 -11 3 -14 6 -6 3 7 2 16 -1 19 -3 4 -6 -2 -5 -13z"/>
<path d="M3876 7594 c-3 -9 -6 -29 -6 -45 0 -16 -4 -29 -10 -29 -5 0 -12 -11
-16 -25 -3 -14 -10 -25 -15 -25 -5 0 -9 -8 -9 -17 1 -32 56 70 63 115 7 43 4
55 -7 26z"/>
<path d="M7721 7584 c0 -11 3 -14 6 -6 3 7 2 16 -1 19 -3 4 -6 -2 -5 -13z"/>
<path d="M3485 7520 c-32 -33 -57 -61 -54 -63 2 -1 31 26 63 60 75 80 69 82
-9 3z"/>
<path d="M6781 7484 c0 -11 3 -14 6 -6 3 7 2 16 -1 19 -3 4 -6 -2 -5 -13z"/>
<path d="M3389 7433 c-13 -15 -12 -15 9 -4 23 12 28 21 13 21 -5 0 -15 -7 -22
-17z"/>
<path d="M3320 7373 l-45 -46 48 38 c26 20 47 41 47 46 0 14 -3 12 -50 -38z"/>
<path d="M7681 7384 c0 -11 3 -14 6 -6 3 7 2 16 -1 19 -3 4 -6 -2 -5 -13z"/>
<path d="M7671 7344 c0 -11 3 -14 6 -6 3 7 2 16 -1 19 -3 4 -6 -2 -5 -13z"/>
<path d="M4751 7325 c0 -5 13 -26 29 -45 17 -19 30 -29 30 -22 0 6 -13 26 -30
44 -16 18 -29 29 -29 23z"/>
<path d="M3240 7288 c-12 -22 -12 -22 6 -6 10 10 15 20 12 24 -4 3 -12 -5 -18
-18z"/>
<path d="M3866 7294 c-17 -12 -17 -14 -4 -14 9 0 20 5 23 11 11 17 2 18 -19 3z"/>
<path d="M6742 7260 c0 -14 2 -19 5 -12 2 6 2 18 0 25 -3 6 -5 1 -5 -13z"/>
<path d="M3891 7214 c0 -11 3 -14 6 -6 3 7 2 16 -1 19 -3 4 -6 -2 -5 -13z"/>
<path d="M6732 7210 c0 -14 2 -19 5 -12 2 6 2 18 0 25 -3 6 -5 1 -5 -13z"/>
<path d="M7637 7203 c-8 -14 -19 -68 -13 -62 8 8 26 69 21 69 -2 0 -6 -3 -8
-7z"/>
<path d="M3094 7124 c-55 -63 -94 -115 -94 -123 0 -3 7 3 16 14 8 11 34 42 57
69 56 66 79 96 74 96 -2 0 -26 -25 -53 -56z"/>
<path d="M6722 7145 c0 -16 2 -22 5 -12 2 9 2 23 0 30 -3 6 -5 -1 -5 -18z"/>
<path d="M3900 7141 c0 -6 4 -13 10 -16 6 -3 7 1 4 9 -7 18 -14 21 -14 7z"/>
<path d="M3920 7095 c0 -5 5 -17 10 -25 5 -8 10 -10 10 -5 0 6 -5 17 -10 25
-5 8 -10 11 -10 5z"/>
<path d="M3914 7028 c3 -13 6 -31 6 -41 0 -10 4 -16 8 -13 11 7 2 76 -10 76
-6 0 -8 -10 -4 -22z"/>
<path d="M7575 6960 c-4 -17 -5 -34 -2 -36 2 -3 7 10 11 27 3 18 4 34 2 36 -2
3 -7 -10 -11 -27z"/>
<path d="M6692 6895 c0 -16 2 -22 5 -12 2 9 2 23 0 30 -3 6 -5 -1 -5 -18z"/>
<path d="M7561 6894 c0 -11 3 -14 6 -6 3 7 2 16 -1 19 -3 4 -6 -2 -5 -13z"/>
<path d="M6682 6830 c0 -19 2 -27 5 -17 2 9 2 25 0 35 -3 9 -5 1 -5 -18z"/>
<path d="M2925 6842 c-3 -3 -5 -14 -5 -24 0 -20 16 -24 23 -5 3 7 6 6 6 -5 1
-9 -3 -20 -9 -23 -5 -3 -10 -12 -10 -18 0 -7 5 -4 11 6 15 25 32 21 24 -5 -7
-23 -7 -23 9 -3 18 23 21 39 6 30 -6 -4 -13 7 -16 23 -5 25 -25 38 -39 24z"/>
<path d="M6672 6760 c0 -19 2 -27 5 -17 2 9 2 25 0 35 -3 9 -5 1 -5 -18z"/>
<path d="M7520 6730 c-7 -28 -10 -53 -8 -55 3 -3 10 18 16 47 7 28 11 53 8 55
-2 2 -9 -19 -16 -47z"/>
<path d="M3006 6755 c-3 -9 -6 -22 -5 -28 0 -7 5 -1 10 12 5 13 8 26 5 28 -2
2 -6 -3 -10 -12z"/>
<path d="M6663 6660 c0 -30 2 -43 4 -27 2 15 2 39 0 55 -2 15 -4 2 -4 -28z"/>
<path d="M7491 6604 c0 -11 3 -14 6 -6 3 7 2 16 -1 19 -3 4 -6 -2 -5 -13z"/>
<path d="M6642 6455 c-7 -71 -15 -155 -19 -185 -3 -30 -3 -53 0 -50 7 7 39
313 35 342 -2 12 -9 -35 -16 -107z"/>
<path d="M7471 6529 c-7 -27 -11 -52 -9 -54 2 -3 10 18 17 46 7 27 11 52 9 54
-2 3 -10 -18 -17 -46z"/>
<path d="M4131 6535 c0 -5 6 -21 14 -35 8 -14 14 -20 14 -15 0 6 -6 21 -14 35
-8 14 -14 21 -14 15z"/>
<path d="M4200 6455 c0 -5 5 -17 10 -25 5 -8 10 -10 10 -5 0 6 -5 17 -10 25
-5 8 -10 11 -10 5z"/>
<path d="M7451 6444 c0 -11 3 -14 6 -6 3 7 2 16 -1 19 -3 4 -6 -2 -5 -13z"/>
<path d="M4180 6411 c0 -6 4 -13 10 -16 6 -3 7 1 4 9 -7 18 -14 21 -14 7z"/>
<path d="M7432 6368 c-7 -28 -11 -53 -8 -55 2 -2 9 19 16 47 7 28 10 53 8 55
-3 3 -10 -18 -16 -47z"/>
<path d="M4200 6375 c0 -5 5 -17 10 -25 5 -8 10 -10 10 -5 0 6 -5 17 -10 25
-5 8 -10 11 -10 5z"/>
<path d="M6160 6346 c0 -3 9 -10 20 -16 11 -6 20 -8 20 -6 0 3 -9 10 -20 16
-11 6 -20 8 -20 6z"/>
<path d="M4220 6325 c0 -5 5 -17 10 -25 5 -8 10 -10 10 -5 0 6 -5 17 -10 25
-5 8 -10 11 -10 5z"/>
<path d="M4276 6277 c3 -10 9 -15 12 -12 3 3 0 11 -7 18 -10 9 -11 8 -5 -6z"/>
<path d="M4246 6267 c3 -10 9 -15 12 -12 3 3 0 11 -7 18 -10 9 -11 8 -5 -6z"/>
<path d="M7382 6173 c-12 -47 -20 -88 -18 -90 5 -6 48 156 44 168 -2 5 -13
-30 -26 -78z"/>
<path d="M4268 6220 c39 -102 211 -425 212 -397 0 4 -15 31 -33 60 -18 29 -63
117 -101 197 -63 133 -102 203 -78 140z"/>
<path d="M6612 6165 c0 -16 2 -22 5 -12 2 9 2 23 0 30 -3 6 -5 -1 -5 -18z"/>
<path d="M6603 6040 c0 -25 2 -35 4 -22 2 12 2 32 0 45 -2 12 -4 2 -4 -23z"/>
<path d="M4386 6037 c3 -10 9 -15 12 -12 3 3 0 11 -7 18 -10 9 -11 8 -5 -6z"/>
<path d="M4441 5984 c0 -11 3 -14 6 -6 3 7 2 16 -1 19 -3 4 -6 -2 -5 -13z"/>
<path d="M4280 5975 c0 -5 5 -17 10 -25 5 -8 10 -10 10 -5 0 6 -5 17 -10 25
-5 8 -10 11 -10 5z"/>
<path d="M7325 5950 c-4 -17 -5 -34 -2 -36 2 -3 7 10 11 27 3 18 4 34 2 36 -2
3 -7 -10 -11 -27z"/>
<path d="M6593 5930 c0 -25 2 -35 4 -22 2 12 2 32 0 45 -2 12 -4 2 -4 -23z"/>
<path d="M5728 5953 c68 -2 176 -2 240 0 64 1 9 3 -123 3 -132 0 -185 -2 -117
-3z"/>
<path d="M5268 5943 c17 -2 47 -2 65 0 17 2 3 4 -33 4 -36 0 -50 -2 -32 -4z"/>
<path d="M7311 5884 c0 -11 3 -14 6 -6 3 7 2 16 -1 19 -3 4 -6 -2 -5 -13z"/>
<path d="M4470 5874 c1 -13 29 -48 34 -43 2 2 -4 15 -15 28 -10 13 -19 19 -19
15z"/>
<path d="M6575 5815 c-4 -37 -5 -69 -2 -71 2 -3 8 25 12 61 4 37 5 69 2 71 -2
3 -8 -25 -12 -61z"/>
<path d="M4490 5783 c0 -6 8 -17 18 -24 16 -13 16 -13 2 6 -8 11 -16 22 -17
24 -2 2 -3 0 -3 -6z"/>
<path d="M7281 5764 c0 -11 3 -14 6 -6 3 7 2 16 -1 19 -3 4 -6 -2 -5 -13z"/>
<path d="M7271 5724 c0 -11 3 -14 6 -6 3 7 2 16 -1 19 -3 4 -6 -2 -5 -13z"/>
<path d="M4504 5686 c11 -25 22 -43 25 -41 6 6 -30 85 -39 85 -4 0 3 -20 14
-44z"/>
<path d="M6563 5685 c0 -27 2 -38 4 -22 2 15 2 37 0 50 -2 12 -4 0 -4 -28z"/>
<path d="M7254 5675 c-3 -8 -4 -20 -2 -27 3 -7 7 -1 10 15 6 29 1 36 -8 12z"/>
<path d="M4440 5640 c6 -11 13 -20 16 -20 2 0 0 9 -6 20 -6 11 -13 20 -16 20
-2 0 0 -9 6 -20z"/>
<path d="M7226 5564 c-9 -37 -15 -68 -13 -71 3 -2 12 26 21 63 9 37 15 68 13
71 -3 2 -12 -26 -21 -63z"/>
<path d="M7181 5384 c-12 -48 -20 -88 -18 -91 3 -2 14 35 26 83 12 48 20 88
18 91 -3 2 -14 -35 -26 -83z"/>
<path d="M4680 5430 c14 -26 2 -137 -16 -165 -18 -25 -18 -62 0 -72 8 -4 16
-17 19 -28 3 -15 5 -13 6 8 1 34 32 95 60 121 26 23 26 34 2 65 -10 14 -16 31
-13 40 3 9 1 12 -6 7 -7 -4 -12 -2 -12 3 0 6 6 11 14 11 7 0 19 7 26 15 10 12
7 13 -22 5 -22 -7 -34 -7 -36 0 -2 5 -10 10 -18 10 -12 0 -12 -4 -4 -20z m60
-64 c0 -3 -4 -8 -10 -11 -5 -3 -10 -1 -10 4 0 6 5 11 10 11 6 0 10 -2 10 -4z
m-27 -49 c-9 -16 -26 12 -18 30 7 17 8 17 15 -2 4 -11 5 -24 3 -28z m-3 -52
c0 -8 -4 -15 -10 -15 -5 0 -10 7 -10 15 0 8 5 15 10 15 6 0 10 -7 10 -15z"/>
<path d="M4651 5388 c-1 -15 4 -30 9 -33 6 -3 10 -2 10 4 0 5 3 17 7 27 4 11
3 15 -4 11 -6 -4 -14 -1 -16 5 -3 7 -6 1 -6 -14z"/>
<path d="M5113 5270 c-47 -10 -162 -82 -156 -97 5 -14 -12 -18 -20 -5 -2 4 -2
1 -1 -5 2 -7 -1 -13 -6 -13 -6 0 -10 -7 -10 -15 0 -13 4 -14 23 -3 12 7 33 14
47 16 41 6 204 64 212 76 4 6 31 13 60 17 l53 7 -62 -1 c-33 -1 -59 1 -56 6 2
4 13 7 23 7 10 0 21 3 23 8 6 9 -88 11 -130 2z m19 -17 c-6 -2 -9 -10 -6 -15
4 -6 2 -8 -4 -4 -6 3 -13 2 -17 -4 -3 -5 -13 -10 -21 -10 -8 0 -12 5 -9 11 7
11 43 28 60 28 6 -1 4 -3 -3 -6z m-17 -53 c-27 -12 -43 -12 -25 0 8 5 22 9 30
9 10 0 8 -3 -5 -9z"/>
<path d="M5348 5253 c7 -3 16 -2 19 1 4 3 -2 6 -13 5 -11 0 -14 -3 -6 -6z"/>
<path d="M7131 5203 c-1 -6 -4 -20 -7 -30 -5 -17 -5 -17 6 0 6 10 9 23 6 30
-3 9 -5 9 -5 0z"/>
<path d="M7111 5143 c-1 -6 -4 -20 -7 -30 -5 -17 -5 -17 6 0 6 10 9 23 6 30
-3 9 -5 9 -5 0z"/>
<path d="M4971 5093 c-1 -18 -5 -33 -9 -33 -12 0 -13 -58 -2 -65 10 -6 25 97
17 117 -3 7 -6 -2 -6 -19z"/>
<path d="M5270 5032 c-50 -26 -92 -73 -71 -80 8 -3 171 76 171 83 0 6 -39 -9
-92 -35 -53 -26 -73 -26 -30 0 17 11 47 29 65 40 48 29 19 24 -43 -8z"/>
<path d="M5176 5024 c-5 -14 -4 -15 9 -4 17 14 19 20 6 20 -5 0 -12 -7 -15
-16z"/>
<path d="M7075 5026 c-6 -6 -18 -23 -28 -38 -9 -15 -36 -37 -59 -49 -37 -19
-64 -22 -218 -26 -96 -3 -179 -6 -185 -8 -26 -9 299 -4 350 6 57 10 125 50
125 72 0 6 7 19 17 29 9 10 14 20 12 22 -2 2 -9 -1 -14 -8z"/>
<path d="M4990 4979 c0 -5 5 -7 10 -4 6 3 10 8 10 11 0 2 -4 4 -10 4 -5 0 -10
-5 -10 -11z"/>
<path d="M5130 4946 c-94 -66 -97 -69 -73 -62 18 6 20 3 16 -14 -3 -11 0 -20
6 -20 6 0 13 11 17 25 3 14 10 25 16 25 5 0 6 -6 2 -12 -5 -7 8 -1 27 14 19
15 33 34 32 44 -1 10 4 22 10 26 7 4 8 7 2 7 -5 -1 -30 -15 -55 -33z m20 -21
c-13 -14 -26 -23 -28 -20 -7 6 29 44 42 44 5 1 -1 -10 -14 -24z"/>
<path d="M4960 4955 c-7 -9 -11 -18 -8 -20 3 -3 11 1 18 10 7 9 11 18 8 20 -3
3 -11 -1 -18 -10z"/>
<path d="M4867 4914 c-11 -11 13 -43 28 -38 16 6 16 25 0 36 -12 9 -20 10 -28
2z"/>
<path d="M4920 4910 c0 -5 5 -10 10 -10 6 0 10 5 10 10 0 6 -4 10 -10 10 -5 0
-10 -4 -10 -10z"/>
<path d="M5322 4886 c-68 -37 -95 -56 -88 -63 4 -4 55 25 66 37 3 4 19 12 37
19 18 7 38 19 44 27 16 19 13 18 -59 -20z"/>
<path d="M6377 4904 c-3 -4 -109 -10 -234 -14 l-228 -8 240 3 c132 2 254 8
270 13 l30 10 -36 1 c-20 1 -38 -2 -42 -5z"/>
<path d="M4800 4846 c0 -2 7 -7 16 -10 8 -3 12 -2 9 4 -6 10 -25 14 -25 6z"/>
<path d="M4953 4827 c-3 -5 -3 -10 -1 -12 7 -7 48 7 48 16 0 10 -40 7 -47 -4z"/>
<path d="M5095 4750 c-3 -5 -1 -10 4 -10 6 0 11 5 11 10 0 6 -2 10 -4 10 -3 0
-8 -4 -11 -10z"/>
<path d="M5003 4701 c-13 -26 -23 -52 -23 -57 0 -12 39 52 51 83 16 42 -6 23
-28 -26z"/>
<path d="M5120 4711 c0 -6 -7 -11 -15 -11 -8 0 -15 -5 -15 -12 0 -6 -10 -23
-22 -37 -20 -22 -20 -23 -2 -8 11 9 26 17 32 17 6 0 9 7 6 15 -4 10 0 15 15
15 22 0 28 14 11 25 -5 3 -10 1 -10 -4z"/>
<path d="M2685 6716 c-15 -11 -17 -17 -8 -28 7 -8 11 -36 9 -67 -2 -28 0 -64
4 -79 6 -19 9 -4 9 55 1 48 -3 85 -10 88 -7 5 -4 14 7 26 20 22 15 25 -11 5z"/>
<path d="M5387 6739 c7 -7 15 -10 18 -7 3 3 -2 9 -12 12 -14 6 -15 5 -6 -5z"/>
<path d="M5459 6687 c25 -26 47 -45 49 -42 7 7 -7 23 -51 56 l-42 33 44 -47z"/>
<path d="M5445 6575 c7 -35 25 -58 25 -31 0 10 4 14 12 10 7 -4 8 -3 4 5 -4 6
-12 9 -17 6 -5 -4 -14 4 -19 17 -9 20 -10 20 -5 -7z"/>
<path d="M5190 6240 c0 -5 5 -10 11 -10 5 0 7 5 4 10 -3 6 -8 10 -11 10 -2 0
-4 -4 -4 -10z"/>
<path d="M3241 6899 c-13 -5 -22 -12 -19 -14 6 -6 58 12 58 20 0 7 -11 5 -39
-6z"/>
<path d="M3305 6883 c-47 -19 -163 -103 -142 -103 2 0 27 18 57 40 55 41 84
46 39 7 -14 -12 -18 -18 -9 -12 8 5 27 21 41 36 54 56 202 49 306 -15 70 -42
96 -67 147 -140 48 -68 68 -75 24 -8 -65 98 -153 169 -244 197 -64 19 -168 18
-219 -2z"/>
<path d="M3167 6763 c-20 -14 -35 -29 -32 -31 3 -3 15 4 28 15 12 11 31 25 42
31 11 6 15 12 10 12 -6 0 -27 -12 -48 -27z"/>
<path d="M3143 6718 c-13 -6 -23 -15 -23 -20 0 -13 13 -9 40 12 27 21 18 25
-17 8z"/>
<path d="M3824 6632 c3 -18 18 -20 24 -4 1 5 -4 12 -12 15 -9 4 -13 0 -12 -11z"/>
<path d="M3251 6596 c2 -2 29 -6 59 -9 37 -4 50 -3 40 3 -14 9 -109 15 -99 6z"/>
<path d="M3469 6574 c-10 -12 -9 -13 5 -8 9 3 16 2 16 -4 0 -5 17 -13 37 -17
20 -3 51 -18 70 -32 18 -14 36 -23 39 -21 9 10 -57 68 -84 74 -15 3 -37 9 -49
14 -15 6 -25 5 -34 -6z"/>
<path d="M3328 6563 c7 -3 16 -2 19 1 4 3 -2 6 -13 5 -11 0 -14 -3 -6 -6z"/>
<path d="M3425 6550 c11 -5 27 -9 35 -9 9 0 8 4 -5 9 -11 5 -27 9 -35 9 -9 0
-8 -4 5 -9z"/>
<path d="M3864 6549 c-3 -6 -1 -15 6 -19 7 -4 10 -15 7 -24 -4 -10 -1 -16 8
-16 15 0 20 26 9 54 -7 19 -20 21 -30 5z"/>
<path d="M3770 6540 c0 -5 5 -10 10 -10 6 0 10 5 10 10 0 6 -4 10 -10 10 -5 0
-10 -4 -10 -10z"/>
<path d="M3500 6526 c0 -2 7 -7 16 -10 8 -3 12 -2 9 4 -6 10 -25 14 -25 6z"/>
<path d="M3797 6524 c-3 -5 3 -25 14 -44 21 -41 25 -27 5 20 -7 18 -16 29 -19
24z"/>
<path d="M3770 6496 c0 -6 19 -43 42 -83 33 -57 44 -70 55 -62 10 9 13 8 13
-1 0 -8 3 -11 6 -8 3 4 -2 20 -11 38 -9 17 -14 39 -11 47 3 8 -1 24 -9 36 -11
15 -15 17 -15 6 0 -8 6 -21 13 -28 10 -10 9 -11 -6 -5 -14 5 -16 2 -11 -12 4
-11 14 -27 22 -36 9 -11 11 -18 4 -18 -7 0 -23 21 -36 48 -27 53 -55 92 -56
78z"/>
<path d="M3650 6480 c1 -17 16 -38 43 -59 27 -21 19 0 -13 39 -17 19 -30 28
-30 20z"/>
<path d="M3730 6346 c11 -30 20 -60 20 -65 0 -5 5 -22 11 -38 l11 -28 13 25
c14 25 9 52 -5 30 -5 -8 -15 10 -25 48 -10 34 -24 67 -31 73 -9 7 -7 -7 6 -45z"/>
<path d="M3778 6032 c-3 -10 0 -26 6 -34 10 -14 12 -11 12 18 0 37 -11 46 -18
16z"/>
<path d="M3832 5980 c0 -14 2 -19 5 -12 2 6 2 18 0 25 -3 6 -5 1 -5 -13z"/>
<path d="M3800 5953 c0 -13 5 -23 10 -23 13 0 13 11 0 30 -8 12 -10 11 -10 -7z"/>
<path d="M3827 5930 c-3 -11 -1 -20 4 -20 5 0 9 9 9 20 0 11 -2 20 -4 20 -2 0
-6 -9 -9 -20z"/>
<path d="M3586 5435 c-3 -9 -6 -22 -5 -28 0 -7 5 -1 10 12 5 13 8 26 5 28 -2
2 -6 -3 -10 -12z"/>
<path d="M3531 5293 c-10 -26 -10 -27 4 -9 8 11 15 23 15 28 0 15 -7 8 -19
-19z"/>
<path d="M3505 5229 c-4 -6 -5 -12 -2 -15 2 -3 7 2 10 11 7 17 1 20 -8 4z"/>
<path d="M3486 5185 c-9 -26 -7 -32 5 -12 6 10 9 21 6 23 -2 3 -7 -2 -11 -11z"/>
<path d="M3555 5053 c5 -22 4 -25 -4 -13 -9 12 -10 9 -5 -14 5 -19 3 -27 -3
-23 -6 4 -13 -5 -16 -21 -8 -42 1 -39 23 9 22 49 25 75 10 84 -7 4 -9 -3 -5
-22z"/>
<path d="M3385 5010 c-9 -16 -13 -30 -11 -30 3 0 12 14 21 30 9 17 13 30 11
30 -3 0 -12 -13 -21 -30z"/>
<path d="M3346 4939 c-12 -23 -12 -28 -2 -20 12 11 29 51 21 51 -2 0 -10 -14
-19 -31z"/>
<path d="M3285 4828 l-16 -33 20 25 c20 24 26 40 16 40 -2 0 -12 -15 -20 -32z"/>
<path d="M3235 4750 c-9 -16 -13 -30 -11 -30 3 0 12 14 21 30 9 17 13 30 11
30 -3 0 -12 -13 -21 -30z"/>
<path d="M3306 4585 c-10 -8 -16 -18 -12 -23 3 -5 -1 -9 -9 -9 -8 0 -15 5 -16
11 0 6 -5 0 -10 -13 -11 -28 -3 -42 12 -21 8 12 12 12 16 2 6 -17 46 33 41 52
-3 13 -6 13 -22 1z"/>
<path d="M2465 4524 c-64 -57 -65 -72 -1 -24 38 29 72 68 65 75 -2 2 -31 -21
-64 -51z"/>
<path d="M3081 4503 c-10 -26 -10 -27 4 -9 8 11 15 23 15 28 0 15 -7 8 -19
-19z"/>
<path d="M3017 4403 c-4 -3 -7 -13 -7 -22 1 -13 3 -13 11 2 11 19 8 33 -4 20z"/>
<path d="M2390 4300 c-8 -5 -23 -10 -33 -10 -24 0 -87 -30 -87 -40 0 -15 69
-32 101 -25 23 5 28 9 18 16 -10 6 -5 9 16 9 17 1 57 14 90 30 l60 28 -75 1
c-41 0 -82 -4 -90 -9z m67 -16 c-3 -3 -12 -4 -19 -1 -8 3 -5 6 6 6 11 1 17 -2
13 -5z"/>
<path d="M3090 4221 c12 -23 30 -36 30 -22 0 10 -27 41 -36 41 -3 0 0 -9 6
-19z"/>
<path d="M2428 4203 c6 -2 18 -2 25 0 6 3 1 5 -13 5 -14 0 -19 -2 -12 -5z"/>
<path d="M2980 4125 c0 -12 -6 -27 -12 -34 -7 -8 2 -3 20 9 30 22 45 39 21 24
-6 -3 -15 0 -20 7 -7 11 -9 9 -9 -6z"/>
<path d="M2690 4085 c46 -18 64 -17 25 0 -16 8 -37 14 -45 14 -8 0 1 -7 20
-14z"/>
<path d="M2520 3950 c0 -6 13 -10 29 -10 17 0 32 -4 35 -9 4 -5 -4 -7 -16 -4
l-23 5 21 -19 c12 -11 25 -29 29 -42 8 -28 31 -22 28 8 -2 12 1 20 6 17 5 -4
12 0 14 6 3 7 6 0 7 -17 2 -29 2 -30 10 -5 5 18 3 29 -8 38 -9 6 -12 12 -7 12
5 0 1 6 -10 14 -23 15 -115 20 -115 6z"/>
<path d="M2680 3909 c0 -5 5 -7 10 -4 6 3 10 8 10 11 0 2 -4 4 -10 4 -5 0 -10
-5 -10 -11z"/>
<path d="M2671 3858 c0 -7 4 -22 9 -33 8 -18 9 -17 9 7 1 15 -3 30 -9 33 -5 3
-10 0 -9 -7z"/>
<path d="M2099 3823 c-3 -12 -6 -36 -8 -55 0 -11 -7 -14 -20 -11 -21 5 -37
-23 -17 -30 7 -3 37 2 67 11 30 8 86 18 124 22 l70 7 -73 1 c-40 1 -82 -3 -93
-9 -11 -6 -25 -9 -32 -6 -6 2 3 10 21 18 36 16 42 29 12 29 -11 0 -20 7 -20
15 0 15 -29 22 -31 8z"/>
<path d="M2625 3820 c-3 -5 -1 -10 4 -10 6 0 11 5 11 10 0 6 -2 10 -4 10 -3 0
-8 -4 -11 -10z"/>
<path d="M2695 3780 c6 -18 3 -20 -22 -15 -25 5 -26 4 -5 -4 12 -6 22 -14 22
-20 0 -5 9 -11 21 -14 15 -4 19 -2 15 10 -3 8 -9 26 -12 39 -3 13 -10 24 -16
24 -5 0 -6 -9 -3 -20z"/>
<path d="M2625 3660 c10 -11 20 -20 23 -20 3 0 -3 9 -13 20 -10 11 -20 20 -23
20 -3 0 3 -9 13 -20z"/>
<path d="M2628 3608 c10 -21 18 -29 20 -20 2 8 -5 24 -17 35 l-20 21 17 -36z"/>
<path d="M2660 3558 c0 -21 44 -128 53 -128 5 0 6 6 3 13 -2 6 -12 36 -21 64
-16 50 -35 79 -35 51z"/>
<path d="M4495 5406 c-15 -17 -14 -43 2 -43 9 0 11 7 8 21 -6 21 -6 21 9 2 9
-11 16 -31 17 -45 0 -14 4 -35 9 -46 7 -16 9 -13 9 16 1 33 -21 93 -37 103 -4
2 -11 -1 -17 -8z"/>
<path d="M3741 5304 c0 -11 3 -14 6 -6 3 7 2 16 -1 19 -3 4 -6 -2 -5 -13z"/>
<path d="M5315 4500 c-8 -13 5 -13 25 0 13 8 13 10 -2 10 -9 0 -20 -4 -23 -10z"/>
<path d="M5420 4506 c0 -2 7 -7 16 -10 8 -3 12 -2 9 4 -6 10 -25 14 -25 6z"/>
<path d="M5992 4490 c0 -14 2 -19 5 -12 2 6 2 18 0 25 -3 6 -5 1 -5 -13z"/>
<path d="M5947 4488 c-14 -12 -14 -15 7 -30 22 -16 23 -16 23 13 0 32 -5 35
-30 17z"/>
<path d="M5885 4450 c-3 -5 -2 -10 4 -10 5 0 13 5 16 10 3 6 2 10 -4 10 -5 0
-13 -4 -16 -10z"/>
<path d="M5433 4403 c9 -2 23 -2 30 0 6 3 -1 5 -18 5 -16 0 -22 -2 -12 -5z"/>
<path d="M5110 4388 c0 -9 5 -20 10 -23 13 -8 13 5 0 25 -8 13 -10 13 -10 -2z"/>
<path d="M6042 4368 c7 -15 15 -23 17 -17 2 6 -4 18 -13 27 -15 15 -15 15 -4
-10z"/>
<path d="M5996 4369 c2 -4 -6 -9 -18 -12 -13 -2 -7 -4 14 -4 23 0 35 4 32 12
-3 6 -11 12 -19 12 -8 0 -12 -4 -9 -8z"/>
<path d="M5740 4350 c-14 -11 -20 -20 -14 -20 6 0 19 9 29 20 23 25 17 25 -15
0z"/>
<path d="M5475 4330 l-50 -7 47 -1 c26 -1 50 3 53 8 3 6 5 9 3 8 -2 0 -25 -4
-53 -8z"/>
<path d="M5285 4310 c10 -11 20 -20 23 -20 3 0 -3 9 -13 20 -10 11 -20 20 -23
20 -3 0 3 -9 13 -20z"/>
<path d="M5655 4300 c-3 -5 -2 -10 4 -10 5 0 13 5 16 10 3 6 2 10 -4 10 -5 0
-13 -4 -16 -10z"/>
<path d="M6100 4283 c-34 -6 -41 -15 -24 -31 9 -8 14 -9 14 -2 0 6 4 9 10 5 5
-3 7 -12 4 -19 -3 -8 0 -17 7 -22 9 -5 11 1 6 23 -5 25 -2 31 21 40 21 8 22
11 7 11 -11 -1 -31 -3 -45 -5z"/>
<path d="M5468 4203 c7 -3 16 -2 19 1 4 3 -2 6 -13 5 -11 0 -14 -3 -6 -6z"/>
<path d="M6149 4143 c-7 -10 -9 -14 -4 -10 5 4 14 -1 20 -12 7 -15 14 -18 25
-11 13 8 12 10 -2 10 -16 0 -23 11 -19 33 2 12 -6 8 -20 -10z"/>
<path d="M5686 4141 c-3 -5 0 -11 8 -14 8 -3 17 1 20 9 6 15 -19 20 -28 5z"/>
<path d="M5240 4105 c-7 -9 -8 -15 -2 -15 5 0 12 7 16 15 3 8 4 15 2 15 -2 0
-9 -7 -16 -15z"/>
<path d="M5154 4055 c8 -47 53 -218 68 -258 7 -19 28 -37 59 -53 27 -13 49
-22 49 -19 0 2 -18 14 -40 25 -21 11 -44 29 -50 40 -6 11 -26 82 -45 157 -34
133 -54 188 -41 108z"/>
<path d="M5196 4053 c-6 -14 -5 -15 5 -6 7 7 10 15 7 18 -3 3 -9 -2 -12 -12z"/>
<path d="M5795 4040 c-7 -12 2 -12 30 0 19 8 19 9 -2 9 -12 1 -25 -3 -28 -9z"/>
<path d="M6217 4039 c-21 -12 -13 -29 14 -29 20 0 23 8 11 27 -5 8 -13 8 -25
2z"/>
<path d="M5908 3923 c7 -3 16 -2 19 1 4 3 -2 6 -13 5 -11 0 -14 -3 -6 -6z"/>
<path d="M5868 3913 c7 -3 16 -2 19 1 4 3 -2 6 -13 5 -11 0 -14 -3 -6 -6z"/>
<path d="M6357 3866 c-64 -17 -64 -21 -4 -22 44 0 128 -20 212 -49 13 -4 12
-1 -5 9 -14 8 -49 22 -78 31 -29 9 -55 22 -59 30 -6 17 -4 17 -66 1z"/>
<path d="M5173 3800 c14 -11 29 -20 34 -20 10 1 -39 39 -51 40 -5 0 3 -9 17
-20z"/>
<path d="M6074 3734 c-34 -20 -43 -32 -48 -62 -3 -20 -17 -65 -31 -99 -14 -35
-25 -73 -24 -85 1 -19 2 -18 9 7 23 84 73 210 88 221 67 48 69 57 6 18z"/>
<path d="M5340 3716 c0 -2 7 -7 16 -10 8 -3 12 -2 9 4 -6 10 -25 14 -25 6z"/>
<path d="M5918 3663 c6 -2 18 -2 25 0 6 3 1 5 -13 5 -14 0 -19 -2 -12 -5z"/>
<path d="M5430 3617 c0 -12 70 -116 83 -124 7 -4 4 4 -6 17 -9 14 -31 45 -47
70 -16 25 -30 41 -30 37z"/>
<path d="M5962 3435 c0 -16 2 -22 5 -12 2 9 2 23 0 30 -3 6 -5 -1 -5 -18z"/>
<path d="M5960 3300 c14 -4 39 -8 55 -8 29 0 29 0 5 8 -14 4 -38 8 -55 8 -29
0 -29 0 -5 -8z"/>
<path d="M6253 3293 c9 -2 25 -2 35 0 9 3 1 5 -18 5 -19 0 -27 -2 -17 -5z"/>
<path d="M1745 3350 c6 -44 11 -57 20 -49 2 3 -3 25 -11 49 l-14 45 5 -45z"/>
<path d="M2360 3310 c-8 -5 -10 -10 -5 -10 6 0 17 5 25 10 8 5 11 10 5 10 -5
0 -17 -5 -25 -10z"/>
<path d="M1995 3300 c-4 -6 11 -10 41 -10 54 0 55 4 2 14 -21 4 -39 2 -43 -4z"/>
<path d="M1683 3283 c9 -2 23 -2 30 0 6 3 -1 5 -18 5 -16 0 -22 -2 -12 -5z"/>
<path d="M2098 3283 c7 -3 16 -2 19 1 4 3 -2 6 -13 5 -11 0 -14 -3 -6 -6z"/>
<path d="M2005 3230 c3 -5 11 -10 16 -10 6 0 7 5 4 10 -3 6 -11 10 -16 10 -6
0 -7 -4 -4 -10z"/>
<path d="M1746 3207 c3 -8 -2 -20 -10 -27 -9 -7 -13 -17 -10 -22 6 -10 26 14
37 45 4 11 1 17 -8 17 -8 0 -12 -6 -9 -13z"/>
<path d="M2175 3169 c22 -14 65 -19 65 -7 0 4 -8 8 -17 8 -10 0 -29 3 -43 6
-23 5 -24 5 -5 -7z"/>
<path d="M1660 3093 c0 -26 0 -26 19 -7 20 21 18 34 -5 34 -9 0 -14 -10 -14
-27z"/>
<path d="M2377 3109 c7 -7 15 -10 18 -7 3 3 -2 9 -12 12 -14 6 -15 5 -6 -5z"/>
<path d="M2088 3073 c6 -2 18 -2 25 0 6 3 1 5 -13 5 -14 0 -19 -2 -12 -5z"/>
<path d="M1943 3063 c9 -2 25 -2 35 0 9 3 1 5 -18 5 -19 0 -27 -2 -17 -5z"/>
<path d="M2008 3063 c7 -3 16 -2 19 1 4 3 -2 6 -13 5 -11 0 -14 -3 -6 -6z"/>
<path d="M1916 2962 c-3 -5 9 -13 25 -19 22 -8 29 -9 27 -1 -5 14 -46 29 -52
20z"/>
<path d="M1572 2952 c13 -5 15 -11 8 -22 -15 -23 -12 -40 8 -39 10 0 12 3 5 6
-20 8 4 43 30 44 21 1 21 1 -3 9 -14 4 -34 8 -45 8 -17 1 -18 0 -3 -6z"/>
<path d="M2640 2840 c0 -5 5 -10 11 -10 5 0 7 5 4 10 -3 6 -8 10 -11 10 -2 0
-4 -4 -4 -10z"/>
<path d="M1517 2829 c7 -7 15 -10 18 -7 3 3 -2 9 -12 12 -14 6 -15 5 -6 -5z"/>
<path d="M1543 2804 c-27 -30 -28 -34 -9 -34 7 0 16 9 19 20 3 13 14 20 29 20
18 0 20 2 8 10 -21 13 -22 13 -47 -16z"/>
<path d="M2638 2805 c-3 -6 -8 -30 -12 -55 l-5 -45 14 45 c14 42 16 76 3 55z"/>
<path d="M1356 2732 c-3 -5 1 -9 9 -9 8 0 15 4 15 9 0 4 -4 8 -9 8 -6 0 -12
-4 -15 -8z"/>
<path d="M1440 2710 c21 -12 99 -24 80 -12 -8 5 -33 12 -55 15 -25 4 -34 3
-25 -3z"/>
<path d="M2606 2674 c-4 -14 -5 -28 -3 -31 3 -2 8 8 11 23 4 14 5 28 3 31 -3
2 -8 -8 -11 -23z"/>
<path d="M1390 2610 c0 -5 4 -10 9 -10 6 0 13 5 16 10 3 6 -1 10 -9 10 -9 0
-16 -4 -16 -10z"/>
<path d="M1448 2603 c6 -2 18 -2 25 0 6 3 1 5 -13 5 -14 0 -19 -2 -12 -5z"/>
<path d="M1360 2590 c-8 -5 -12 -12 -9 -15 4 -3 12 1 19 10 14 17 11 19 -10 5z"/>
<path d="M1746 2556 c3 -8 13 -12 27 -8 20 5 20 6 1 13 -29 11 -34 10 -28 -5z"/>
<path d="M2381 2429 c-24 -22 -42 -42 -40 -44 2 -2 24 15 47 37 24 22 42 42
40 43 -2 2 -23 -14 -47 -36z"/>
<path d="M2532 2420 c0 -14 2 -19 5 -12 2 6 2 18 0 25 -3 6 -5 1 -5 -13z"/>
<path d="M2275 2324 c-37 -41 -71 -66 -132 -96 -46 -23 -81 -43 -79 -45 2 -2
34 10 72 27 65 29 161 108 185 153 16 28 6 20 -46 -39z"/>
<path d="M1985 2160 c-13 -6 -15 -9 -5 -9 8 0 22 4 30 9 18 12 2 12 -25 0z"/>
<path d="M1848 2113 c7 -3 16 -2 19 1 4 3 -2 6 -13 5 -11 0 -14 -3 -6 -6z"/>
<path d="M1788 2103 c6 -2 18 -2 25 0 6 3 1 5 -13 5 -14 0 -19 -2 -12 -5z"/>
<path d="M1718 2093 c12 -2 30 -2 40 0 9 3 -1 5 -23 4 -22 0 -30 -2 -17 -4z"/>
<path d="M2358 3593 c7 -3 16 -2 19 1 4 3 -2 6 -13 5 -11 0 -14 -3 -6 -6z"/>
<path d="M2328 3573 c7 -3 16 -2 19 1 4 3 -2 6 -13 5 -11 0 -14 -3 -6 -6z"/>
</g>
</svg>
